<?xml version="1.0" encoding="utf-8"?>
<!-- Generator: Adobe Illustrator 23.0.4, SVG Export Plug-In . SVG Version: 6.00 Build 0)  -->
<svg version="1.1" id="Ebene_1" xmlns="http://www.w3.org/2000/svg" xmlns:xlink="http://www.w3.org/1999/xlink" x="0px" y="0px"
	 viewBox="0 0 170 170" style="enable-background:new 0 0 170 170;" xml:space="preserve">
<style type="text/css">
	.st0{fill-rule:evenodd;clip-rule:evenodd;}
</style>
<g>
	<path class="st0" d="M80,51.3l19.5,0l1.7-12.3L80,51.3L80,51.3z M53.9,61l-16.5-5.8L22.1,81.7L53.9,61L53.9,61z M35.8,53.2
		c0,0,0.1-0.1,0.1-0.1l19.6-33.9c0.2-0.4,0.6-0.7,1.1-0.7h75.9c0.2,0,0.3,0,0.5,0.1l0,0l0,0l0,0l0,0l0,0l0,0l0,0l0,0l0,0l0,0l0,0
		l0,0l0,0l0,0l0,0l0,0l0,0l0,0l0,0l0,0l0,0l0,0l0,0l0,0l0,0l0,0l0,0l0,0l0,0l0,0l0,0l0,0l0,0l0,0l0,0l0,0l0,0l0,0l0,0l0,0l0,0l0,0
		l0,0l0,0l0,0l0,0l0,0l0,0l0,0l0,0l0,0l0,0v0l0,0l0,0l0,0l0,0l0,0l0,0l0,0l18.9,32.8c0.1,0.2,0.2,0.4,0.2,0.7c0,0.7-0.5,1.2-1.2,1.2
		H76.2L57.9,85.4L76.2,117h75.2l0,0h0h0l0,0l0,0h0l0,0l0,0l0,0h0l0,0l0,0l0,0h0l0,0l0,0c0.4,0,0.7,0.2,0.9,0.6
		c0.2,0.4,0.2,0.9,0,1.3l-18.9,32.7c-0.2,0.4-0.6,0.7-1.1,0.7H56.5c-0.1,0-0.2,0-0.3,0l0,0l0,0l0,0l0,0h0l0,0l0,0l0,0l0,0l0,0l0,0
		l0,0l0,0l0,0l0,0l0,0l0,0l0,0l0,0l0,0l0,0l0,0l0,0l0,0l0,0l0,0l0,0l0,0l0,0h0l0,0l0,0l0,0l0,0l0,0l0,0l0,0l0,0l0,0l0,0l0,0l0,0l0,0
		l0,0l0,0l0,0l0,0l0,0l0,0l0,0l0,0l0,0l0,0l0,0l0,0l0,0l0,0l0,0l0,0l0,0l0,0c-0.1-0.1-0.1-0.1-0.1-0.2L17.6,86l0,0
		c-0.2-0.4-0.2-0.9,0-1.3L35.8,53.2L35.8,53.2z M38.6,53.1l16.7-29l0,34.9L38.6,53.1L38.6,53.1z M103.8,120l-12.6,17.5l38.3,11.5
		l-8.7-12.6L103.8,120L103.8,120z M124.3,149.9l-34.9-10.5l-26.6,10.5H124.3L124.3,149.9z M89.3,136.1l12-16.7H77.8L89.3,136.1
		L89.3,136.1z M20.5,85.5l34.8-22.7v22.4l-3.5,29.6L20.5,85.5L20.5,85.5z M54.1,118.5l3.4,30.9l29.9-11.8l-12.6-18.2L54.1,118.5
		L54.1,118.5z M54.7,145.6l-3.1-27.7L23.6,91.7L54.7,145.6L54.7,145.6z M57.3,89.1l-3.2,27.1l19.3,0.8L57.3,89.1L57.3,89.1z
		 M72.7,55l-15,6.4v19.5L72.7,55L72.7,55z M57.7,58.9l16.1-6.9L57.7,24.1L57.7,58.9L57.7,58.9z M105.6,36.5l43.2,13.9L132,21.3
		L105.6,36.5L105.6,36.5z M143.8,51.3l-40.1-13l-1.8,13L143.8,51.3L143.8,51.3z M63.2,20.8l39.4,14.6L128,20.8H63.2L63.2,20.8z
		 M99.9,37L76,50.9l-16.7-29L99.9,37L99.9,37z M121.9,134.1l25.1-14.7h-40.4L121.9,134.1L121.9,134.1z M132.3,148.8l15.8-27.3
		l-24.7,14.4L132.3,148.8z"/>
	<g>
		<path class="st0" d="M121.7,139.8c2.4,0,4.3-1.9,4.3-4.3s-1.9-4.3-4.3-4.3s-4.3,1.9-4.3,4.3S119.4,139.8,121.7,139.8z"/>
		<path class="st0" d="M89.3,143.4c2.9,0,5.3-2.4,5.3-5.3c0-2.9-2.4-5.3-5.3-5.3c-2.9,0-5.3,2.4-5.3,5.3
			C84,141.1,86.4,143.4,89.3,143.4z"/>
		<path class="st0" d="M103.7,121.3c1.7,0,3.1-1.4,3.1-3.1c0-1.7-1.4-3.1-3.1-3.1c-1.7,0-3.1,1.4-3.1,3.1
			C100.6,119.9,102,121.3,103.7,121.3z"/>
		<path class="st0" d="M132.4,155.6c2.5,0,4.5-2,4.5-4.5c0-2.5-2-4.5-4.5-4.5c-2.5,0-4.5,2-4.5,4.5
			C127.9,153.6,129.9,155.6,132.4,155.6z"/>
		<path class="st0" d="M151.4,123.5c2.9,0,5.3-2.4,5.3-5.3c0-2.9-2.4-5.3-5.3-5.3c-2.9,0-5.3,2.4-5.3,5.3
			C146.1,121.1,148.5,123.5,151.4,123.5z"/>
		<path class="st0" d="M18.6,90.7c2.9,0,5.3-2.4,5.3-5.3c0-2.9-2.4-5.3-5.3-5.3c-2.9,0-5.3,2.4-5.3,5.3
			C13.3,88.3,15.7,90.7,18.6,90.7z"/>
		<path class="st0" d="M75.5,122.5c2.4,0,4.3-1.9,4.3-4.3c0-2.4-1.9-4.3-4.3-4.3s-4.3,1.9-4.3,4.3C71.2,120.6,73.2,122.5,75.5,122.5
			z"/>
		<path class="st0" d="M52.8,121.1c2.1,0,3.8-1.7,3.8-3.8c0-2.1-1.7-3.8-3.8-3.8c-2.1,0-3.8,1.7-3.8,3.8
			C49,119.4,50.7,121.1,52.8,121.1z"/>
		<path class="st0" d="M56.5,156.9c3.2,0,5.8-2.6,5.8-5.8c0-3.2-2.6-5.8-5.8-5.8c-3.2,0-5.8,2.6-5.8,5.8
			C50.8,154.3,53.4,156.9,56.5,156.9z"/>
		<path class="st0" d="M56.5,90.3c2.7,0,4.9-2.2,4.9-4.9c0-2.7-2.2-4.9-4.9-4.9c-2.7,0-4.9,2.2-4.9,4.9
			C51.7,88.1,53.9,90.3,56.5,90.3z"/>
		<circle class="st0" cx="36.9" cy="53.7" r="3.4"/>
		<path class="st0" d="M56.5,66c2.9,0,5.3-2.4,5.3-5.3c0-2.9-2.4-5.3-5.3-5.3c-2.9,0-5.3,2.4-5.3,5.3C51.2,63.6,53.6,66,56.5,66z"/>
		<path class="st0" d="M75.5,56c1.9,0,3.5-1.6,3.5-3.5c0-1.9-1.6-3.5-3.5-3.5S72,50.6,72,52.5C72,54.4,73.6,56,75.5,56z"/>
		<path class="st0" d="M56.5,26.1c3.6,0,6.5-2.9,6.5-6.5s-2.9-6.5-6.5-6.5c-3.6,0-6.5,2.9-6.5,6.5S53,26.1,56.5,26.1z"/>
		<circle class="st0" cx="102.7" cy="36.8" r="4.3"/>
		<path class="st0" d="M132.4,23.8c2.3,0,4.1-1.9,4.1-4.1c0-2.3-1.9-4.1-4.1-4.1c-2.3,0-4.1,1.9-4.1,4.1
			C128.3,21.9,130.1,23.8,132.4,23.8z"/>
		<path class="st0" d="M151.4,56c1.9,0,3.5-1.6,3.5-3.5c0-1.9-1.6-3.5-3.5-3.5c-1.9,0-3.5,1.6-3.5,3.5C147.9,54.4,149.5,56,151.4,56
			z"/>
		<path class="st0" d="M100.5,55c1.4,0,2.5-1.1,2.5-2.5s-1.1-2.5-2.5-2.5c-1.4,0-2.5,1.1-2.5,2.5S99.1,55,100.5,55z"/>
	</g>
</g>
</svg>
