<?xml version="1.0" encoding="utf-8"?>
<!-- Generator: Adobe Illustrator 23.0.4, SVG Export Plug-In . SVG Version: 6.00 Build 0)  -->
<svg version="1.1" id="Ebene_1" xmlns="http://www.w3.org/2000/svg" xmlns:xlink="http://www.w3.org/1999/xlink" x="0px" y="0px"
	 viewBox="0 0 180 90" style="enable-background:new 0 0 180 90;" xml:space="preserve">
<style type="text/css">
	.st0{fill-rule:evenodd;clip-rule:evenodd;}
	.st1{fill-rule:evenodd;clip-rule:evenodd;fill:#EC1F32;}
</style>
<g>
	<g>
		<path class="st0" d="M152,53.2h3.5V43l7.7,10.1h3v-16h-3.5V47l-7.5-9.8H152V53.2L152,53.2z M53.7,53.4c3.1,0,4.9-1.1,6.5-2.8
			L58,48.3c-1.3,1.1-2.4,1.9-4.2,1.9c-2.7,0-4.6-2.3-4.6-5v0c0-2.7,1.9-5,4.6-5c1.6,0,2.8,0.7,4.1,1.8l2.2-2.6
			c-1.5-1.5-3.3-2.5-6.3-2.5c-4.9,0-8.3,3.7-8.3,8.2v0C45.5,49.8,49,53.4,53.7,53.4L53.7,53.4z M70.4,50.2c-2.5,0-4.4-1.8-4.8-4.1
			h-3.7c0.4,4.1,3.8,7.3,8.4,7.3c4.6,0,8-3.2,8.4-7.3h-3.7C74.7,48.4,72.9,50.2,70.4,50.2L70.4,50.2z M82,53.2h3.4V42.8l4.4,6.7h0.1
			l4.5-6.8v10.4h3.5v-16h-3.8l-4.2,6.7l-4.2-6.7H82V53.2L82,53.2z M116,53.4c3.1,0,4.9-1.1,6.5-2.8l-2.2-2.3
			c-1.3,1.1-2.4,1.9-4.2,1.9c-2.7,0-4.6-2.3-4.6-5v0c0-2.7,1.9-5,4.6-5c1.6,0,2.8,0.7,4.1,1.8l2.2-2.6c-1.5-1.5-3.3-2.5-6.3-2.5
			c-4.9,0-8.3,3.7-8.3,8.2v0C107.9,49.8,111.3,53.4,116,53.4L116,53.4z M132.7,50.2c-2.5,0-4.4-1.8-4.8-4.1h-3.7
			c0.4,4.1,3.8,7.3,8.4,7.3c4.6,0,8-3.2,8.4-7.3h-3.7C137.1,48.4,135.2,50.2,132.7,50.2L132.7,50.2z M144.5,53.2h3.5v-16h-3.5V53.2z
			"/>
		<g>
			<path class="st1" d="M128,44.3c0.4-2.3,2.2-4.1,4.7-4.1c2.5,0,4.4,1.8,4.8,4.1h3.7c-0.4-4.1-3.8-7.3-8.4-7.3
				c-4.6,0-8,3.2-8.4,7.3H128z"/>
			<path class="st1" d="M65.6,44.3c0.4-2.3,2.2-4.1,4.7-4.1c2.5,0,4.4,1.8,4.8,4.1h3.7c-0.4-4.1-3.8-7.3-8.4-7.3
				c-4.6,0-8,3.2-8.4,7.3H65.6z"/>
		</g>
	</g>
	<path class="st1" d="M47.4,28l9.8,0l0.9-6.2L47.4,28L47.4,28z M34.3,32.9L26,30l-7.7,13.3L34.3,32.9L34.3,32.9z M25.2,29
		C25.2,29,25.2,28.9,25.2,29l9.9-17.1c0.1-0.2,0.3-0.4,0.5-0.4h38.2c0.1,0,0.2,0,0.2,0l0,0l0,0l0,0l0,0l0,0l0,0l0,0l0,0l0,0l0,0l0,0
		l0,0l0,0l0,0l0,0l0,0l0,0l0,0l0,0l0,0l0,0l0,0l0,0l0,0l0,0l0,0l0,0l0,0l0,0l0,0l0,0l0,0l0,0l0,0l0,0l0,0l0,0l0,0l0,0l0,0l0,0l0,0
		l0,0l0,0l0,0l0,0l0,0l0,0l0,0l0,0l0,0l0,0v0l0,0l0,0l0,0l0,0l0,0l0,0l0,0l9.5,16.5c0.1,0.1,0.1,0.2,0.1,0.3c0,0.3-0.3,0.6-0.6,0.6
		H45.5l-9.2,15.9l9.2,15.9h37.9l0,0h0h0l0,0l0,0h0l0,0l0,0l0,0h0l0,0l0,0l0,0h0l0,0l0,0c0.2,0,0.4,0.1,0.5,0.3
		c0.1,0.2,0.1,0.5,0,0.6l-9.5,16.5c-0.1,0.2-0.3,0.3-0.5,0.3H35.6c0,0-0.1,0-0.1,0l0,0l0,0l0,0l0,0h0l0,0l0,0l0,0l0,0l0,0l0,0l0,0
		l0,0l0,0l0,0l0,0l0,0l0,0l0,0l0,0l0,0l0,0l0,0l0,0l0,0l0,0l0,0l0,0l0,0h0l0,0l0,0l0,0l0,0l0,0l0,0l0,0l0,0l0,0l0,0l0,0l0,0l0,0l0,0
		l0,0l0,0l0,0l0,0l0,0l0,0l0,0l0,0l0,0l0,0l0,0l0,0l0,0l0,0l0,0l0,0l0,0c0,0-0.1-0.1-0.1-0.1L16,45.5l0,0c-0.1-0.2-0.1-0.4,0-0.6
		L25.2,29L25.2,29z M26.6,28.9L35,14.3l0,17.6L26.6,28.9L26.6,28.9z M59.4,62.6l-6.3,8.8l19.3,5.8L68,70.8L59.4,62.6L59.4,62.6z
		 M69.7,77.7l-17.6-5.3l-13.4,5.3H69.7L69.7,77.7z M52.1,70.7l6-8.4H46.3L52.1,70.7L52.1,70.7z M17.5,45.3L35,33.9v11.3L33.3,60
		L17.5,45.3L17.5,45.3z M34.4,61.9l1.7,15.5l15.1-5.9l-6.3-9.2L34.4,61.9L34.4,61.9z M34.7,75.5l-1.5-13.9L19.1,48.4L34.7,75.5
		L34.7,75.5z M36,47l-1.6,13.6l9.7,0.4L36,47L36,47z M43.8,29.9l-7.5,3.2V43L43.8,29.9L43.8,29.9z M36.2,31.8l8.1-3.5l-8.1-14
		L36.2,31.8L36.2,31.8z M60.4,20.6l21.7,7l-8.5-14.7L60.4,20.6L60.4,20.6z M79.6,28l-20.2-6.5L58.5,28L79.6,28L79.6,28z M39,12.7
		l19.9,7.4l12.8-7.4H39L39,12.7z M57.5,20.8l-12.1,7L37,13.2L57.5,20.8L57.5,20.8z M68.5,69.7l12.6-7.4H60.8L68.5,69.7L68.5,69.7z
		 M73.8,77.1l7.9-13.8l-12.4,7.3L73.8,77.1z"/>
	<g>
		<path class="st1" d="M68.5,72.6c1.2,0,2.2-1,2.2-2.2c0-1.2-1-2.2-2.2-2.2c-1.2,0-2.2,1-2.2,2.2C66.3,71.6,67.3,72.6,68.5,72.6z"/>
		<path class="st1" d="M52.1,74.4c1.5,0,2.7-1.2,2.7-2.7c0-1.5-1.2-2.7-2.7-2.7c-1.5,0-2.7,1.2-2.7,2.7
			C49.5,73.2,50.7,74.4,52.1,74.4z"/>
		<path class="st1" d="M59.4,63.3c0.9,0,1.5-0.7,1.5-1.5c0-0.9-0.7-1.5-1.5-1.5c-0.9,0-1.5,0.7-1.5,1.5
			C57.8,62.6,58.5,63.3,59.4,63.3z"/>
		<path class="st1" d="M73.8,80.5c1.3,0,2.3-1,2.3-2.3s-1-2.3-2.3-2.3s-2.3,1-2.3,2.3S72.6,80.5,73.8,80.5z"/>
		<path class="st1" d="M83.4,64.4c1.5,0,2.7-1.2,2.7-2.7c0-1.5-1.2-2.7-2.7-2.7c-1.5,0-2.7,1.2-2.7,2.7
			C80.7,63.2,81.9,64.4,83.4,64.4z"/>
		<path class="st1" d="M16.5,47.8c1.5,0,2.7-1.2,2.7-2.7c0-1.5-1.2-2.7-2.7-2.7s-2.7,1.2-2.7,2.7C13.9,46.7,15.1,47.8,16.5,47.8z"/>
		<path class="st1" d="M45.2,63.9c1.2,0,2.2-1,2.2-2.2c0-1.2-1-2.2-2.2-2.2c-1.2,0-2.2,1-2.2,2.2C43,62.9,44,63.9,45.2,63.9z"/>
		<path class="st1" d="M33.8,63.2c1.1,0,1.9-0.9,1.9-1.9c0-1.1-0.9-1.9-1.9-1.9c-1.1,0-1.9,0.9-1.9,1.9
			C31.8,62.3,32.7,63.2,33.8,63.2z"/>
		<path class="st1" d="M35.6,81.2c1.6,0,2.9-1.3,2.9-2.9s-1.3-2.9-2.9-2.9c-1.6,0-2.9,1.3-2.9,2.9S34,81.2,35.6,81.2z"/>
		<path class="st1" d="M35.6,47.6c1.4,0,2.5-1.1,2.5-2.5c0-1.4-1.1-2.5-2.5-2.5c-1.4,0-2.5,1.1-2.5,2.5
			C33.2,46.5,34.3,47.6,35.6,47.6z"/>
		<path class="st1" d="M25.7,31c0.9,0,1.7-0.8,1.7-1.7c0-0.9-0.8-1.7-1.7-1.7c-0.9,0-1.7,0.8-1.7,1.7C24,30.2,24.8,31,25.7,31z"/>
		<path class="st1" d="M35.6,35.4c1.5,0,2.7-1.2,2.7-2.7c0-1.5-1.2-2.7-2.7-2.7c-1.5,0-2.7,1.2-2.7,2.7C33,34.2,34.2,35.4,35.6,35.4
			z"/>
		<path class="st1" d="M45.2,30.4c1,0,1.8-0.8,1.8-1.8c0-1-0.8-1.8-1.8-1.8c-1,0-1.8,0.8-1.8,1.8C43.4,29.6,44.2,30.4,45.2,30.4z"/>
		<path class="st1" d="M35.6,15.4c1.8,0,3.3-1.5,3.3-3.3c0-1.8-1.5-3.3-3.3-3.3c-1.8,0-3.3,1.5-3.3,3.3
			C32.4,13.9,33.8,15.4,35.6,15.4z"/>
		<path class="st1" d="M58.9,22.9c1.2,0,2.2-1,2.2-2.2c0-1.2-1-2.2-2.2-2.2c-1.2,0-2.2,1-2.2,2.2C56.7,21.9,57.7,22.9,58.9,22.9z"/>
		<path class="st1" d="M73.8,14.2c1.1,0,2.1-0.9,2.1-2.1c0-1.1-0.9-2.1-2.1-2.1c-1.1,0-2.1,0.9-2.1,2.1
			C71.8,13.2,72.7,14.2,73.8,14.2z"/>
		<path class="st1" d="M83.4,30.4c1,0,1.8-0.8,1.8-1.8c0-1-0.8-1.8-1.8-1.8c-1,0-1.8,0.8-1.8,1.8C81.6,29.6,82.4,30.4,83.4,30.4z"/>
		<path class="st1" d="M57.8,29.9c0.7,0,1.2-0.6,1.2-1.2c0-0.7-0.6-1.2-1.2-1.2s-1.2,0.6-1.2,1.2C56.5,29.3,57.1,29.9,57.8,29.9z"/>
	</g>
</g>
</svg>
