<?xml version="1.0" encoding="utf-8"?>
<!-- Generator: Adobe Illustrator 23.0.4, SVG Export Plug-In . SVG Version: 6.00 Build 0)  -->
<svg version="1.1" id="Ebene_1" xmlns="http://www.w3.org/2000/svg" xmlns:xlink="http://www.w3.org/1999/xlink" x="0px" y="0px"
	 viewBox="0 0 40 40" style="enable-background:new 0 0 40 40;" xml:space="preserve">
<style type="text/css">
	path{fill-rule:evenodd;clip-rule:evenodd;fill:#ffa500;}
</style>
<g id="abe">
	<g>
		<path d="M15.2,27.3c-6.5,0-11.7-5.5-11.7-12.4c0-6.8,5.3-12.4,11.7-12.4c6.5,0,11.7,5.5,11.7,12.4C26.9,21.7,21.6,27.3,15.2,27.3z
			 M15.2,3.9c-5.7,0-10.3,4.9-10.3,11s4.6,11,10.3,11c5.7,0,10.3-4.9,10.3-11S20.9,3.9,15.2,3.9z"/>
	</g>
	<g>
		<path d="M35.9,37.5c-0.2,0-0.4-0.1-0.5-0.2l-4.3-4.5c-0.3-0.3-0.3-0.7,0-1c0.3-0.3,0.7-0.3,1,0l4.3,4.5c0.3,0.3,0.3,0.7,0,1
			C36.2,37.4,36,37.5,35.9,37.5z"/>
	</g>
	<g>
		<path d="M29.7,31c-0.2,0-0.4-0.1-0.5-0.2c-0.3-0.3-0.3-0.7,0-1l0.1-0.1c0.3-0.3,0.7-0.3,1,0c0.3,0.3,0.3,0.7,0,1l-0.1,0.1
			C30,30.9,29.8,31,29.7,31z"/>
	</g>
	<g>
		<path d="M27.8,29c-0.2,0-0.4-0.1-0.5-0.2l-4.9-5.1c-0.3-0.3-0.3-0.7,0-1c0.3-0.3,0.7-0.3,1,0l4.9,5.1c0.3,0.3,0.3,0.7,0,1
			C28.2,28.9,28,29,27.8,29z"/>
	</g>
	<g>
		<path d="M13.7,23.1C13.7,23.1,13.7,23.1,13.7,23.1c-1.7,0-4.8-1.1-4.9-4.8c0-0.4,0.3-0.7,0.7-0.7c0.4,0,0.7,0.3,0.7,0.7
			c0.1,3.3,3.2,3.5,3.5,3.5c0.4,0,0.7,0.3,0.7,0.7C14.4,22.8,14.1,23.1,13.7,23.1z"/>
	</g>
</g>
</svg>
