<?xml version="1.0" encoding="utf-8"?>
<!-- Generator: Adobe Illustrator 23.0.4, SVG Export Plug-In . SVG Version: 6.00 Build 0)  -->
<svg version="1.1" id="Ebene_1" xmlns="http://www.w3.org/2000/svg" xmlns:xlink="http://www.w3.org/1999/xlink" x="0px" y="0px"
	 viewBox="0 0 40 40" style="enable-background:new 0 0 40 40;" xml:space="preserve">
<style type="text/css">
	path{fill-rule:evenodd;clip-rule:evenodd;fill:#ffa500;}
</style>
<g id="add">
	<g>
		<g>
			<path d="M32.2,8.2c-0.2,0-0.4-0.1-0.5-0.2c-0.1-0.1-0.2-0.3-0.2-0.5c0-0.2,0.1-0.4,0.2-0.5c0.3-0.3,0.7-0.3,1,0
				c0.1,0.1,0.2,0.3,0.2,0.5c0,0.2-0.1,0.4-0.2,0.5C32.6,8.1,32.4,8.2,32.2,8.2z"/>
		</g>
		<g>
			<path d="M20,38.2C10,38.2,1.8,30,1.8,20C1.8,10,10,1.8,20,1.8c3.3,0,6.5,0.9,9.4,2.6c0.3,0.2,0.4,0.6,0.2,1
				c-0.2,0.3-0.6,0.4-1,0.2C26,4,23,3.2,20,3.2C10.7,3.2,3.2,10.7,3.2,20c0,9.3,7.5,16.8,16.8,16.8S36.8,29.3,36.8,20
				c0-3.2-0.9-6.3-2.6-9c-0.2-0.3-0.1-0.8,0.2-1c0.3-0.2,0.8-0.1,1,0.2c1.9,2.9,2.9,6.3,2.9,9.8C38.2,30,30,38.2,20,38.2z"/>
		</g>
	</g>
	<g>
		<g>
			<path d="M28,20.7H11.9c-0.4,0-0.7-0.3-0.7-0.7s0.3-0.7,0.7-0.7H28c0.4,0,0.7,0.3,0.7,0.7S28.4,20.7,28,20.7z"/>
		</g>
		<g>
			<path d="M20,28.4c-0.4,0-0.7-0.3-0.7-0.7V12.3c0-0.4,0.3-0.7,0.7-0.7c0.4,0,0.7,0.3,0.7,0.7v15.4C20.7,28.1,20.4,28.4,20,28.4z"
				/>
		</g>
	</g>
</g>
</svg>
