<?xml version="1.0" encoding="utf-8"?>
<!-- Generator: Adobe Illustrator 23.0.6, SVG Export Plug-In . SVG Version: 6.00 Build 0)  -->
<svg version="1.1" id="Ebene_1" xmlns="http://www.w3.org/2000/svg" xmlns:xlink="http://www.w3.org/1999/xlink" x="0px" y="0px"
	 viewBox="0 0 40 40" style="enable-background:new 0 0 40 40;" xml:space="preserve">
<style type="text/css">
	.st0{fill:#FFCC33;}
</style>
<g id="clock1-5">
	<g>
		<g>
			<g>
				<path class="st0" d="M25.7,20.7H20c-0.4,0-0.7-0.3-0.7-0.7v-8.8c0-0.4,0.3-0.7,0.7-0.7s0.7,0.3,0.7,0.7v8.1h5
					c0.4,0,0.7,0.3,0.7,0.7C26.4,20.4,26.1,20.7,25.7,20.7z"/>
			</g>
		</g>
	</g>
	<g>
		<g>
			<g>
				<path class="st0" d="M20,38.2C10,38.2,1.8,30,1.8,20S10,1.8,20,1.8S38.2,10,38.2,20S30,38.2,20,38.2z M20,3.2
					C10.7,3.2,3.2,10.7,3.2,20S10.7,36.8,20,36.8S36.8,29.3,36.8,20S29.3,3.2,20,3.2z"/>
			</g>
		</g>
	</g>
	<g>
		<g>
			<g>
				<path class="st0" d="M20,34.9c-8.2,0-14.9-6.7-14.9-14.9c0-1.8,0.3-3.5,0.9-5.1c0.1-0.4,0.5-0.5,0.9-0.4s0.5,0.5,0.4,0.9
					c-0.5,1.5-0.8,3-0.8,4.6c0,7.4,6,13.5,13.5,13.5s13.5-6,13.5-13.5c0-7.4-6-13.5-13.5-13.5c-3.1,0-6.1,1.1-8.5,3
					c-0.3,0.2-0.7,0.2-1-0.1c-0.2-0.3-0.2-0.7,0.1-1c2.6-2.2,6-3.3,9.4-3.3c8.2,0,14.9,6.7,14.9,14.9S28.2,34.9,20,34.9z"/>
			</g>
		</g>
	</g>
	<g>
		<g>
			<g>
				<path class="st0" d="M8.3,12.8c-0.2,0-0.4-0.1-0.5-0.2c-0.1-0.1-0.2-0.3-0.2-0.5s0.1-0.4,0.2-0.5c0.3-0.3,0.7-0.3,1,0
					C8.9,11.7,9,11.9,9,12.1c0,0.2-0.1,0.4-0.2,0.5C8.6,12.7,8.4,12.8,8.3,12.8z"/>
			</g>
		</g>
	</g>
</g>
</svg>
