<?xml version="1.0" encoding="utf-8"?>
<!-- Generator: Adobe Illustrator 23.0.6, SVG Export Plug-In . SVG Version: 6.00 Build 0)  -->
<svg version="1.1" id="Ebene_1" xmlns="http://www.w3.org/2000/svg" xmlns:xlink="http://www.w3.org/1999/xlink" x="0px" y="0px"
	 viewBox="0 0 40 40" style="enable-background:new 0 0 40 40;" xml:space="preserve">
<style type="text/css">
	.st0{fill:#FF6600;}
	.st1{fill:#FF0000;}
</style>
<g>
	<g>
		<g>
			<path class="st0" d="M18.4,32.6h-5.7c-0.4,0-0.7-0.3-0.7-0.7V14.8c0-0.4,0.3-0.7,0.7-0.7h5.7c0.4,0,0.7,0.3,0.7,0.7v17.1
				C19.1,32.3,18.8,32.6,18.4,32.6z M13.4,31.2h4.3V15.5h-4.3V31.2z"/>
		</g>
		<g>
			<path class="st1" d="M9.8,32.7H4.2c-0.4,0-0.7-0.3-0.7-0.7v-9.5c0-0.4,0.3-0.7,0.7-0.7h5.7c0.4,0,0.7,0.3,0.7,0.7V32
				C10.5,32.4,10.2,32.7,9.8,32.7z M4.9,31.3h4.3v-8.1H4.9V31.3z"/>
		</g>
		<g>
			<path d="M35.7,14.3c0.2,0,0.4-0.1,0.5-0.2c0.1-0.1,0.2-0.3,0.2-0.5c0-0.2-0.1-0.4-0.2-0.5c-0.3-0.3-0.7-0.3-1,0
				c-0.1,0.1-0.2,0.3-0.2,0.5c0,0.2,0.1,0.4,0.2,0.5C35.4,14.2,35.6,14.3,35.7,14.3z"/>
		</g>
		<g>
			<path d="M30.1,32.7h5.7c0.4,0,0.7-0.3,0.7-0.7V16.2c0-0.4-0.3-0.7-0.7-0.7c-0.4,0-0.7,0.3-0.7,0.7v15h-4.3V4.7H35v6.2
				c0,0.4,0.3,0.7,0.7,0.7c0.4,0,0.7-0.3,0.7-0.7V4c0-0.4-0.3-0.7-0.7-0.7h-5.7c-0.4,0-0.7,0.3-0.7,0.7v28
				C29.4,32.3,29.7,32.7,30.1,32.7z"/>
		</g>
		<g>
			<path d="M27.1,32.7h-5.7c-0.4,0-0.7-0.4-0.7-0.9V10.1c0-0.5,0.3-0.9,0.7-0.9h5.7c0.4,0,0.7,0.4,0.7,0.9v21.7
				C27.8,32.3,27.4,32.7,27.1,32.7z M22.1,31.2l4.2-0.1l0-20.6h-4.3V31.2z"/>
		</g>
	</g>
	<g>
		<path d="M36.8,36.7H3.2c-0.4,0-0.7-0.3-0.7-0.7c0-0.4,0.3-0.7,0.7-0.7h33.6c0.4,0,0.7,0.3,0.7,0.7C37.5,36.3,37.2,36.7,36.8,36.7z
			"/>
	</g>
</g>
</svg>
