<?xml version="1.0" encoding="utf-8"?>
<!-- Generator: Adobe Illustrator 23.0.4, SVG Export Plug-In . SVG Version: 6.00 Build 0)  -->
<svg version="1.1" id="Ebene_1" xmlns="http://www.w3.org/2000/svg" xmlns:xlink="http://www.w3.org/1999/xlink" x="0px" y="0px"
	 viewBox="0 0 40 40" style="enable-background:new 0 0 40 40;" xml:space="preserve">
<style type="text/css">
	path{fill-rule:evenodd;clip-rule:evenodd;fill:#ffa500;}
</style>
<g id="edit">
	<g>
		<g>
			<path d="M3.8,36.9c-0.2,0-0.4-0.1-0.5-0.2c-0.2-0.2-0.3-0.5-0.1-0.8l4.3-9.2c0-0.1,0.1-0.1,0.1-0.2L29.8,4.2
				C30.6,3.4,31.6,3,32.7,3c1.1,0,2.2,0.4,2.9,1.2c1.6,1.6,1.6,4.3,0,5.9L13.4,32.4c-0.1,0.1-0.1,0.1-0.2,0.1l-9.1,4.3
				C4,36.9,3.9,36.9,3.8,36.9z M8.6,27.4l-3.4,7.3l7.3-3.4L34.7,9.1c1.1-1.1,1.1-2.8,0-3.9c-1-1-2.9-1-3.9,0L8.6,27.4z"/>
		</g>
		<g>
			<path d="M10.4,33.8c-0.2,0-0.4-0.1-0.5-0.2l-3.5-3.6c-0.3-0.3-0.3-0.7,0-1c0.3-0.3,0.7-0.3,1,0l3.5,3.6c0.3,0.3,0.3,0.7,0,1
				C10.8,33.7,10.6,33.8,10.4,33.8z"/>
		</g>
		<g>
			<path d="M34.4,11.1c-0.2,0-0.4-0.1-0.5-0.2L29,6c-0.3-0.3-0.3-0.7,0-1c0.3-0.3,0.7-0.3,1,0l4.9,4.9c0.3,0.3,0.3,0.7,0,1
				C34.8,11,34.6,11.1,34.4,11.1z"/>
		</g>
		<g>
			<path d="M23.1,17.5c-0.2,0-0.4-0.1-0.5-0.2c-0.3-0.3-0.3-0.7,0-1l8.9-8.9c0.3-0.3,0.7-0.3,1,0c0.3,0.3,0.3,0.7,0,1l-8.9,8.9
				C23.5,17.5,23.3,17.5,23.1,17.5z"/>
		</g>
		<g>
			<path d="M20.5,20.1c-0.2,0-0.4-0.1-0.5-0.2c-0.1-0.1-0.2-0.3-0.2-0.5c0-0.2,0.1-0.4,0.2-0.5c0.3-0.3,0.7-0.3,1,0
				c0.1,0.1,0.2,0.3,0.2,0.5c0,0.2-0.1,0.4-0.2,0.5C20.9,20,20.7,20.1,20.5,20.1z"/>
		</g>
		<g>
			<path d="M8.6,32c-0.2,0-0.4-0.1-0.5-0.2c-0.3-0.3-0.3-0.7,0-1l9.3-9.4c0.3-0.3,0.7-0.3,1,0c0.3,0.3,0.3,0.7,0,1l-9.3,9.4
				C9,32,8.8,32,8.6,32z"/>
		</g>
	</g>
	<g>
		<path d="M3.9,37c-0.4,0-0.7-0.3-0.7-0.7c0-0.4,0.3-0.7,0.7-0.7l32.3-0.1h0c0.4,0,0.7,0.3,0.7,0.7c0,0.4-0.3,0.7-0.7,0.7L3.9,37
			C3.9,37,3.9,37,3.9,37z"/>
	</g>
</g>
</svg>
