<?xml version="1.0" encoding="utf-8"?>
<!-- Generator: Adobe Illustrator 23.0.4, SVG Export Plug-In . SVG Version: 6.00 Build 0)  -->
<svg version="1.1" id="Ebene_1" xmlns="http://www.w3.org/2000/svg" xmlns:xlink="http://www.w3.org/1999/xlink" x="0px" y="0px"
	 viewBox="0 0 40 40" style="enable-background:new 0 0 40 40;" xml:space="preserve">
<style type="text/css">
	path{fill-rule:evenodd;clip-rule:evenodd;fill:#ffa500;}
</style>
<g id="editpast">
	<g>
		<path d="M23.7,37.5H7.8c-0.4,0-0.7-0.3-0.7-0.7V3.2c0-0.4,0.3-0.7,0.7-0.7h9.8c0.4,0,0.7,0.3,0.7,0.7S18,3.9,17.6,3.9H8.5v32.2
			h14.9l8-8V3.9h-8.6c-0.4,0-0.7-0.3-0.7-0.7s0.3-0.7,0.7-0.7h9.3c0.4,0,0.7,0.3,0.7,0.7v25.2c0,0.2-0.1,0.4-0.2,0.5l-8.4,8.4
			C24.1,37.4,23.9,37.5,23.7,37.5z"/>
	</g>
	<g>
		<path d="M32.2,29.1h-8.4c-0.4,0-0.7-0.3-0.7-0.7s0.3-0.7,0.7-0.7h8.4c0.4,0,0.7,0.3,0.7,0.7S32.6,29.1,32.2,29.1z"/>
	</g>
	<g>
		<path d="M23.7,37.5c-0.4,0-0.7-0.3-0.7-0.7v-8.4c0-0.4,0.3-0.7,0.7-0.7c0.4,0,0.7,0.3,0.7,0.7v8.4C24.4,37.2,24.1,37.5,23.7,37.5z
			"/>
	</g>
	<g>
		<g>
			<path d="M20.2,20.4c-0.2,0-0.4-0.1-0.5-0.3l-6.2-7.5c-0.2-0.2-0.2-0.5-0.1-0.7c0.1-0.2,0.4-0.4,0.6-0.4h2.9V9
				c0-0.4,0.3-0.7,0.7-0.7s0.7,0.3,0.7,0.7v3.2c0,0.4-0.3,0.7-0.7,0.7h-2.1l4.7,5.7l4.7-5.7h-2.1c-0.4,0-0.7-0.3-0.7-0.7V3.2
				c0-0.4,0.3-0.7,0.7-0.7s0.7,0.3,0.7,0.7v8.4h2.9c0.3,0,0.5,0.2,0.6,0.4c0.1,0.2,0.1,0.5-0.1,0.7l-6.2,7.5
				C20.7,20.3,20.5,20.4,20.2,20.4z"/>
		</g>
		<g>
			<path d="M17.6,9.7c-0.4,0-0.7-0.3-0.7-0.7V3.2c0-0.4,0.3-0.7,0.7-0.7s0.7,0.3,0.7,0.7V9C18.3,9.4,18,9.7,17.6,9.7z"/>
		</g>
	</g>
</g>
</svg>
