<?xml version="1.0" encoding="utf-8"?>
<!-- Generator: Adobe Illustrator 23.0.4, SVG Export Plug-In . SVG Version: 6.00 Build 0)  -->
<svg version="1.1" id="Ebene_1" xmlns="http://www.w3.org/2000/svg" xmlns:xlink="http://www.w3.org/1999/xlink" x="0px" y="0px"
	 viewBox="0 0 40 40" style="enable-background:new 0 0 40 40;" xml:space="preserve">
<style type="text/css">
	path{fill-rule:evenodd;clip-rule:evenodd;fill:#ffa500;}
</style>
<g id="editcopy">
	<g>
		<g>
			<g>
				<path d="M27.9,37.5H6.5c-0.4,0-0.7-0.3-0.7-0.7v-16c0-0.4,0.3-0.7,0.7-0.7s0.7,0.3,0.7,0.7v15.3h20V17.7l-8.4-8.3H7.2v5
					c0,0.4-0.3,0.7-0.7,0.7s-0.7-0.3-0.7-0.7V8.8c0-0.4,0.3-0.7,0.7-0.7h12.6c0.2,0,0.4,0.1,0.5,0.2l8.8,8.7
					c0.1,0.1,0.2,0.3,0.2,0.5v19.4C28.6,37.2,28.3,37.5,27.9,37.5z"/>
			</g>
			<g>
				<path d="M6.5,18.3c-0.2,0-0.4-0.1-0.5-0.2c-0.1-0.1-0.2-0.3-0.2-0.5c0-0.2,0.1-0.4,0.2-0.5c0.3-0.3,0.7-0.3,1,0
					c0.1,0.1,0.2,0.3,0.2,0.5c0,0.2-0.1,0.4-0.2,0.5C6.9,18.3,6.7,18.3,6.5,18.3z"/>
			</g>
			<g>
				<path d="M19.1,18.1c-0.4,0-0.7-0.3-0.7-0.7V8.8c0-0.4,0.3-0.7,0.7-0.7s0.7,0.3,0.7,0.7v8.7C19.8,17.8,19.5,18.1,19.1,18.1z"/>
			</g>
			<g>
				<path d="M27.9,18.1h-8.8c-0.4,0-0.7-0.3-0.7-0.7s0.3-0.7,0.7-0.7h8.8c0.4,0,0.7,0.3,0.7,0.7S28.3,18.1,27.9,18.1z"/>
			</g>
		</g>
	</g>
	<g>
		<g>
			<g>
				<path d="M33.5,31.9h-5.6c-0.4,0-0.7-0.3-0.7-0.7s0.3-0.7,0.7-0.7h4.9V3.9h-20v4.8c0,0.4-0.3,0.7-0.7,0.7s-0.7-0.3-0.7-0.7V3.2
					c0-0.4,0.3-0.7,0.7-0.7h21.4c0.4,0,0.7,0.3,0.7,0.7v28C34.2,31.6,33.9,31.9,33.5,31.9z"/>
			</g>
		</g>
	</g>
</g>
</svg>
