<?xml version="1.0" encoding="utf-8"?>
<!-- Generator: Adobe Illustrator 23.0.4, SVG Export Plug-In . SVG Version: 6.00 Build 0)  -->
<svg version="1.1" id="Ebene_1" xmlns="http://www.w3.org/2000/svg" xmlns:xlink="http://www.w3.org/1999/xlink" x="0px" y="0px"
	 viewBox="0 0 40 40" style="enable-background:new 0 0 40 40;" xml:space="preserve">
<style type="text/css">
	path{fill-rule:evenodd;clip-rule:evenodd;fill:#ffa500;}
</style>
<g id="export2">
	<g>
		<g>
			<path d="M20,29.9c-0.2,0-0.4-0.1-0.5-0.2l-10-11.7c-0.2-0.2-0.2-0.5-0.1-0.7c0.1-0.2,0.4-0.4,0.6-0.4h5.1v-4.4
				c0-0.4,0.3-0.7,0.7-0.7s0.7,0.3,0.7,0.7v5.1c0,0.4-0.3,0.7-0.7,0.7h-4.2l8.5,9.9l8.5-9.9h-4.2c-0.4,0-0.7-0.3-0.7-0.7V3.2
				c0-0.4,0.3-0.7,0.7-0.7s0.7,0.3,0.7,0.7v13.6H30c0.3,0,0.5,0.2,0.6,0.4c0.1,0.2,0.1,0.5-0.1,0.7l-10,11.7
				C20.4,29.8,20.2,29.9,20,29.9z"/>
		</g>
		<g>
			<path d="M15.8,13.1c-0.4,0-0.7-0.3-0.7-0.7V3.2c0-0.4,0.3-0.7,0.7-0.7s0.7,0.3,0.7,0.7v9.2C16.5,12.7,16.2,13.1,15.8,13.1z"/>
		</g>
	</g>
	<g>
		<path d="M33.7,37.5H6.3c-0.4,0-0.7-0.3-0.7-0.7v-7.6c0-0.4,0.3-0.7,0.7-0.7c0.4,0,0.7,0.3,0.7,0.7v6.9H33v-6.9
			c0-0.4,0.3-0.7,0.7-0.7c0.4,0,0.7,0.3,0.7,0.7v7.6C34.4,37.2,34.1,37.5,33.7,37.5z"/>
	</g>
</g>
</svg>
