<?xml version="1.0" encoding="utf-8"?>
<!-- Generator: Adobe Illustrator 23.0.4, SVG Export Plug-In . SVG Version: 6.00 Build 0)  -->
<svg version="1.1" id="Ebene_1" xmlns="http://www.w3.org/2000/svg" xmlns:xlink="http://www.w3.org/1999/xlink" x="0px" y="0px"
	 viewBox="0 0 40 40" style="enable-background:new 0 0 40 40;" xml:space="preserve">
<style type="text/css">
	path{fill-rule:evenodd;clip-rule:evenodd;fill:#ffa500;}
</style>
<g id="export">
	<g>
		<g>
			<path d="M36.8,36H3.2c-0.4,0-0.7-0.3-0.7-0.7V4.7C2.5,4.3,2.8,4,3.2,4h33.6c0.4,0,0.7,0.3,0.7,0.7v30.6
				C37.5,35.7,37.2,36,36.8,36z M3.9,34.6h32.2V5.4H3.9V34.6z"/>
		</g>
	</g>
	<g>
		<g>
			<path d="M20,30.4c-0.2,0-0.4-0.1-0.5-0.3l-7.1-8.7c-0.2-0.2-0.2-0.5-0.1-0.7c0.1-0.2,0.4-0.4,0.6-0.4h3.4v-9.9
				c0-0.4,0.3-0.7,0.7-0.7h6c0.4,0,0.7,0.3,0.7,0.7v9.9h3.4c0.3,0,0.5,0.2,0.6,0.4c0.1,0.2,0.1,0.5-0.1,0.7l-7.1,8.7
				C20.4,30.3,20.2,30.4,20,30.4z M14.4,21.6l5.6,6.9l5.6-6.9H23c-0.4,0-0.7-0.3-0.7-0.7V11h-4.6v9.9c0,0.4-0.3,0.7-0.7,0.7H14.4z"
				/>
		</g>
	</g>
</g>
</svg>
