<?xml version="1.0" encoding="utf-8"?>
<!-- Generator: Adobe Illustrator 23.0.4, SVG Export Plug-In . SVG Version: 6.00 Build 0)  -->
<svg version="1.1" id="Ebene_1" xmlns="http://www.w3.org/2000/svg" xmlns:xlink="http://www.w3.org/1999/xlink" x="0px" y="0px"
	 viewBox="0 0 40 40" style="enable-background:new 0 0 40 40;" xml:space="preserve">
<style type="text/css">
	path{fill-rule:evenodd;clip-rule:evenodd;fill:#ffa500;}
</style>
<g id="filesave">
	<g>
		<g>
			<g>
				<path d="M27.1,37.5c-4.4,0-8.1-3.6-8.1-8.1c0-4.5,3.6-8.1,8.1-8.1c0.4,0,0.7,0.3,0.7,0.7c0,0.4-0.3,0.7-0.7,0.7
					c-3.7,0-6.7,3-6.7,6.7c0,3.7,3,6.7,6.7,6.7c3.7,0,6.7-3,6.7-6.7c0-1.2-0.3-2.3-0.9-3.3c-0.2-0.3-0.1-0.8,0.3-1
					c0.3-0.2,0.8-0.1,1,0.3c0.7,1.2,1.1,2.6,1.1,4C35.2,33.9,31.6,37.5,27.1,37.5z"/>
			</g>
		</g>
		<g>
			<g>
				<path d="M30.8,23.7c-0.2,0-0.4-0.1-0.5-0.2c-0.1-0.1-0.2-0.3-0.2-0.5c0-0.2,0.1-0.4,0.2-0.5c0.3-0.3,0.7-0.3,1,0
					c0.1,0.1,0.2,0.3,0.2,0.5c0,0.2-0.1,0.4-0.2,0.5C31.2,23.7,31,23.7,30.8,23.7z"/>
			</g>
		</g>
		<g>
			<g>
				<path d="M26.7,32c-0.2,0-0.4-0.1-0.5-0.2c-0.3-0.3-0.3-0.7,0-1l4.4-4.4c0.3-0.3,0.7-0.3,1,0c0.3,0.3,0.3,0.7,0,1l-4.4,4.4
					C27.1,31.9,26.9,32,26.7,32z"/>
			</g>
		</g>
		<g>
			<g>
				<path d="M25.7,33L25.7,33c-0.2,0-0.4-0.1-0.5-0.2l-2.6-2.6c-0.3-0.3-0.3-0.7,0-1c0.3-0.3,0.7-0.3,1,0l2.1,2.1l0.5-0.5
					c0.3-0.3,0.7-0.3,1,0c0.3,0.3,0.3,0.7,0,1l-1,1C26.1,33,25.9,33,25.7,33z"/>
			</g>
		</g>
	</g>
	<g>
		<g>
			<path d="M20.4,33H5.5c-0.4,0-0.7-0.3-0.7-0.7V13.7c0-0.4,0.3-0.7,0.7-0.7c0.4,0,0.7,0.3,0.7,0.7v17.9h14.2c0.4,0,0.7,0.3,0.7,0.7
				C21.1,32.6,20.8,33,20.4,33z"/>
		</g>
	</g>
	<g>
		<g>
			<path d="M27.1,22.7c-0.4,0-0.7-0.3-0.7-0.7V9.3l-5.3-5.4H6.2v6.4c0,0.4-0.3,0.7-0.7,0.7c-0.4,0-0.7-0.3-0.7-0.7V3.2
				c0-0.4,0.3-0.7,0.7-0.7h15.9c0.2,0,0.4,0.1,0.5,0.2l5.7,5.8c0.1,0.1,0.2,0.3,0.2,0.5V22C27.8,22.4,27.5,22.7,27.1,22.7z"/>
		</g>
	</g>
	<g>
		<g>
			<path d="M27.1,9.7h-5.7c-0.4,0-0.7-0.3-0.7-0.7c0-0.4,0.3-0.7,0.7-0.7h5.7c0.4,0,0.7,0.3,0.7,0.7C27.8,9.4,27.5,9.7,27.1,9.7z"/>
		</g>
	</g>
	<g>
		<g>
			<path d="M21.4,9.7c-0.4,0-0.7-0.3-0.7-0.7V3.2c0-0.4,0.3-0.7,0.7-0.7c0.4,0,0.7,0.3,0.7,0.7V9C22.1,9.4,21.8,9.7,21.4,9.7z"/>
		</g>
	</g>
</g>
</svg>
