<?xml version="1.0" encoding="utf-8"?>
<!-- Generator: Adobe Illustrator 23.0.4, SVG Export Plug-In . SVG Version: 6.00 Build 0)  -->
<svg version="1.1" id="Ebene_1" xmlns="http://www.w3.org/2000/svg" xmlns:xlink="http://www.w3.org/1999/xlink" x="0px" y="0px"
	 viewBox="0 0 40 40" style="enable-background:new 0 0 40 40;" xml:space="preserve">
<style type="text/css">
	path{fill-rule:evenodd;clip-rule:evenodd;fill:#ffa500;}
</style>
<g id="overview__x28_home_x29_">
	<g>
		<g>
			<g>
				<g>
					<path d="M32.6,36.3H24c-0.4,0-0.7-0.3-0.7-0.7v-7.7h-6.8v7.7c0,0.4-0.3,0.7-0.7,0.7H7.3c-0.4,0-0.7-0.3-0.7-0.7v-6.1
						c0-0.4,0.3-0.7,0.7-0.7c0.4,0,0.7,0.3,0.7,0.7v5.4h7.2v-7.7c0-0.4,0.3-0.7,0.7-0.7H24c0.4,0,0.7,0.3,0.7,0.7v7.7h7.2V18.3
						c0-0.4,0.3-0.7,0.7-0.7c0.4,0,0.7,0.3,0.7,0.7v17.4C33.3,36,33,36.3,32.6,36.3z"/>
				</g>
			</g>
		</g>
		<g>
			<g>
				<g>
					<path d="M7.3,27c-0.2,0-0.4-0.1-0.5-0.2c-0.1-0.1-0.2-0.3-0.2-0.5c0-0.2,0.1-0.4,0.2-0.5c0.3-0.3,0.7-0.3,1,0
						C7.9,26,8,26.2,8,26.3c0,0.2-0.1,0.4-0.2,0.5C7.6,27,7.5,27,7.3,27z"/>
				</g>
			</g>
		</g>
		<g>
			<g>
				<g>
					<path d="M7.3,23.9c-0.4,0-0.7-0.3-0.7-0.7v-4.9c0-0.4,0.3-0.7,0.7-0.7c0.4,0,0.7,0.3,0.7,0.7v4.9C8,23.6,7.7,23.9,7.3,23.9z"/>
				</g>
			</g>
		</g>
		<g>
			<g>
				<g>
					<path d="M37,19h-4.3c-0.4,0-0.7-0.3-0.7-0.7c0-0.4,0.3-0.7,0.7-0.7H35l-6.1-5c-0.3-0.2-0.3-0.7-0.1-1c0.2-0.3,0.7-0.3,1-0.1
						l7.6,6.2c0.2,0.2,0.3,0.5,0.2,0.8C37.5,18.8,37.3,19,37,19z"/>
				</g>
			</g>
		</g>
		<g>
			<g>
				<g>
					<path d="M7.3,19H3c-0.3,0-0.6-0.2-0.7-0.5c-0.1-0.3,0-0.6,0.2-0.8L19.5,3.8c0.3-0.2,0.6-0.2,0.9,0l7,5.7c0.3,0.2,0.3,0.7,0.1,1
						c-0.2,0.3-0.7,0.3-1,0.1L20,5.3L5,17.6h2.3c0.4,0,0.7,0.3,0.7,0.7C8,18.6,7.7,19,7.3,19z"/>
				</g>
			</g>
		</g>
	</g>
	<g>
		<g>
			<g>
				<path d="M31.9,14.8c-0.4,0-0.7-0.3-0.7-0.7v-9h-5.7v3.2c0,0.4-0.3,0.7-0.7,0.7c-0.4,0-0.7-0.3-0.7-0.7V4.4
					c0-0.4,0.3-0.7,0.7-0.7h7.1c0.4,0,0.7,0.3,0.7,0.7v9.7C32.6,14.5,32.2,14.8,31.9,14.8z"/>
			</g>
		</g>
	</g>
	<g>
		<g>
			<g>
				<path d="M23.3,21.4h-6.6c-0.4,0-0.7-0.3-0.7-0.7v-6.6c0-0.4,0.3-0.7,0.7-0.7h6.6c0.4,0,0.7,0.3,0.7,0.7v6.6
					C24,21.1,23.7,21.4,23.3,21.4z M17.4,20h5.2v-5.2h-5.2V20z"/>
			</g>
		</g>
	</g>
</g>
</svg>
