<?xml version="1.0" encoding="utf-8"?>
<!-- Generator: Adobe Illustrator 23.0.4, SVG Export Plug-In . SVG Version: 6.00 Build 0)  -->
<svg version="1.1" id="Ebene_1" xmlns="http://www.w3.org/2000/svg" xmlns:xlink="http://www.w3.org/1999/xlink" x="0px" y="0px"
	 viewBox="0 0 40 40" style="enable-background:new 0 0 40 40;" xml:space="preserve">
<style type="text/css">
	path{fill-rule:evenodd;clip-rule:evenodd;fill:#ffa500;}
</style>
<g id="import">
	<g>
		<g>
			<path d="M36.8,36H3.2c-0.4,0-0.7-0.3-0.7-0.7V4.7C2.5,4.3,2.8,4,3.2,4h33.6c0.4,0,0.7,0.3,0.7,0.7v30.6
				C37.5,35.7,37.2,36,36.8,36z M3.9,34.6h32.2V5.4H3.9V34.6z"/>
		</g>
	</g>
	<g>
		<g>
			<path d="M20,9.6c0.2,0,0.4,0.1,0.5,0.3l7.1,8.7c0.2,0.2,0.2,0.5,0.1,0.7c-0.1,0.2-0.4,0.4-0.6,0.4h-3.4v9.9
				c0,0.4-0.3,0.7-0.7,0.7h-6c-0.4,0-0.7-0.3-0.7-0.7v-9.9h-3.4c-0.3,0-0.5-0.2-0.6-0.4c-0.1-0.2-0.1-0.5,0.1-0.7l7.1-8.7
				C19.6,9.7,19.8,9.6,20,9.6z M25.6,18.4L20,11.5l-5.6,6.9H17c0.4,0,0.7,0.3,0.7,0.7V29h4.6v-9.9c0-0.4,0.3-0.7,0.7-0.7H25.6z"/>
		</g>
	</g>
</g>
</svg>
