<?xml version="1.0" encoding="utf-8"?>
<!-- Generator: Adobe Illustrator 23.0.4, SVG Export Plug-In . SVG Version: 6.00 Build 0)  -->
<svg version="1.1" id="Ebene_1" xmlns="http://www.w3.org/2000/svg" xmlns:xlink="http://www.w3.org/1999/xlink" x="0px" y="0px"
	 viewBox="0 0 40 40" style="enable-background:new 0 0 40 40;" xml:space="preserve">
<style type="text/css">
	path{fill-rule:evenodd;clip-rule:evenodd;fill:#ffa500;}
</style>
<g id="inspect">
	<g>
		<g>
			<g>
				<g>
					<path d="M17.9,25c-0.2,0-0.4-0.1-0.5-0.2l-2.2-2.2c-0.3-0.3-0.3-0.7,0-1l2-2c0.3-0.3,0.7-0.3,1,0c0.3,0.3,0.3,0.7,0,1l-1.5,1.5
						l1.2,1.2l1.6-1.6c0.3-0.3,0.7-0.3,1,0c0.3,0.3,0.3,0.7,0,1l-2.1,2.1C18.3,24.9,18.1,25,17.9,25z"/>
				</g>
			</g>
		</g>
		<g>
			<g>
				<g>
					<path d="M22.2,20.7c-0.2,0-0.4-0.1-0.5-0.2c-0.3-0.3-0.3-0.7,0-1l6.5-6.5c0.3-0.3,0.7-0.3,1,0l0.2,0.2l3.3-1.6l3.4-5l-2.5-2.5
						l-5.3,3.5l-1.5,3.1l0.2,0.2c0.1,0.1,0.2,0.3,0.2,0.5c0,0.2-0.1,0.4-0.2,0.5l-6.4,6.4c-0.3,0.3-0.7,0.3-1,0
						c-0.3-0.3-0.3-0.7,0-1l5.9-5.9l0,0c-0.2-0.2-0.3-0.5-0.1-0.8l1.8-3.7c0.1-0.1,0.1-0.2,0.2-0.3l5.9-3.9c0.3-0.2,0.6-0.1,0.9,0.1
						L37.5,6c0.2,0.2,0.3,0.6,0.1,0.9l-3.8,5.7c-0.1,0.1-0.2,0.2-0.3,0.2l-4,1.9c-0.3,0.1-0.6,0.1-0.8-0.1l-0.1-0.1l-6,6
						C22.6,20.6,22.4,20.7,22.2,20.7z"/>
				</g>
			</g>
		</g>
		<g>
			<g>
				<g>
					<path d="M20.1,27.1c-0.2,0-0.4-0.1-0.5-0.2l-6.4-6.3c-0.3-0.3-0.3-0.7,0-1c0.3-0.3,0.7-0.3,1,0l6.4,6.3c0.3,0.3,0.3,0.7,0,1
						C20.4,27,20.2,27.1,20.1,27.1z"/>
				</g>
			</g>
		</g>
		<g>
			<g>
				<g>
					<path d="M9.2,27.4c-0.2,0-0.4-0.1-0.5-0.2c-0.3-0.3-0.3-0.7,0-1l5.6-5.5c0.3-0.3,0.7-0.3,1,0c0.3,0.3,0.3,0.7,0,1l-5.6,5.5
						C9.6,27.3,9.4,27.4,9.2,27.4z"/>
				</g>
			</g>
		</g>
		<g>
			<g>
				<g>
					<path d="M5.9,37.5c-0.9,0-1.9-0.3-2.6-1c-0.7-0.7-1.1-1.6-1.1-2.5c0-1,0.4-1.9,1.1-2.5l1.3-1.3c0.3-0.3,0.7-0.3,1,0
						c0.3,0.3,0.3,0.7,0,1l-1.3,1.3c-0.4,0.4-0.6,1-0.6,1.5c0,0.6,0.2,1.1,0.6,1.5c0.9,0.9,2.3,0.9,3.1,0l10.9-10.7
						c0.3-0.3,0.7-0.3,1,0c0.3,0.3,0.3,0.7,0,1L8.5,36.5C7.8,37.2,6.9,37.5,5.9,37.5z"/>
				</g>
			</g>
		</g>
		<g>
			<g>
				<g>
					<path d="M3.9,36.7c-0.2,0-0.4-0.1-0.5-0.2c-0.3-0.3-0.3-0.7,0-1l9.7-9.7c0.3-0.3,0.7-0.3,1,0c0.3,0.3,0.3,0.7,0,1l-9.7,9.7
						C4.2,36.6,4.1,36.7,3.9,36.7z"/>
				</g>
			</g>
		</g>
	</g>
	<g>
		<g>
			<g>
				<g>
					<path d="M22.1,25c-0.2,0-0.4-0.1-0.5-0.2L11.3,14.5l-0.1,0.1c-0.2,0.2-0.5,0.3-0.8,0.1l-4-1.9c-0.1-0.1-0.2-0.1-0.3-0.2
						L2.4,6.8C2.3,6.6,2.3,6.2,2.5,6l3.3-3.3c0.2-0.2,0.6-0.3,0.9-0.1l5.9,3.9c0.1,0.1,0.2,0.2,0.2,0.3l1.8,3.7
						c0.1,0.3,0.1,0.6-0.1,0.8l0,0l10.3,10.3c0.3,0.3,0.3,0.7,0,1l-2.2,2.2C22.5,24.9,22.3,25,22.1,25z M11.3,12.8
						c0.2,0,0.4,0.1,0.5,0.2l10.3,10.3l1.2-1.2L13.1,11.8c-0.1-0.1-0.2-0.3-0.2-0.5c0-0.2,0.1-0.4,0.2-0.5l0.2-0.2l-1.5-3.1L6.4,4.1
						L3.9,6.5l3.4,5l3.3,1.6l0.2-0.2C11,12.9,11.2,12.8,11.3,12.8z"/>
				</g>
			</g>
		</g>
		<g>
			<g>
				<g>
					<path d="M19.9,27.1c-0.2,0-0.4-0.1-0.5-0.2c-0.3-0.3-0.3-0.7,0-1l6.4-6.3c0.3-0.3,0.7-0.3,1,0c0.3,0.3,0.3,0.7,0,1l-6.4,6.3
						C20.3,27,20.1,27.1,19.9,27.1z"/>
				</g>
			</g>
		</g>
		<g>
			<g>
				<g>
					<path d="M30.8,27.4c-0.2,0-0.4-0.1-0.5-0.2l-5.6-5.5c-0.3-0.3-0.3-0.7,0-1c0.3-0.3,0.7-0.3,1,0l5.6,5.5c0.3,0.3,0.3,0.7,0,1
						C31.2,27.3,31,27.4,30.8,27.4z"/>
				</g>
			</g>
		</g>
		<g>
			<g>
				<g>
					<path d="M34.1,37.5c-0.9,0-1.9-0.3-2.6-1L20.6,25.7c-0.3-0.3-0.3-0.7,0-1c0.3-0.3,0.7-0.3,1,0l10.9,10.7c0.9,0.9,2.3,0.9,3.1,0
						c0.4-0.4,0.6-1,0.6-1.5c0-0.6-0.2-1.1-0.6-1.5l-1.3-1.3c-0.3-0.3-0.3-0.7,0-1c0.3-0.3,0.7-0.3,1,0l1.3,1.3
						c0.7,0.7,1.1,1.6,1.1,2.5c0,1-0.4,1.9-1.1,2.5C35.9,37.2,35,37.5,34.1,37.5z"/>
				</g>
			</g>
		</g>
		<g>
			<g>
				<g>
					<path d="M36.1,36.7c-0.2,0-0.4-0.1-0.5-0.2l-9.7-9.7c-0.3-0.3-0.3-0.7,0-1c0.3-0.3,0.7-0.3,1,0l9.7,9.7c0.3,0.3,0.3,0.7,0,1
						C36.5,36.6,36.3,36.7,36.1,36.7z"/>
				</g>
			</g>
		</g>
	</g>
	<g>
		<g>
			<g>
				<path d="M32.7,29.2c-0.2,0-0.4-0.1-0.5-0.2c-0.1-0.1-0.2-0.3-0.2-0.5c0-0.2,0.1-0.4,0.2-0.5c0.3-0.3,0.7-0.3,1,0
					c0.1,0.1,0.2,0.3,0.2,0.5c0,0.2-0.1,0.4-0.2,0.5C33.1,29.1,32.9,29.2,32.7,29.2z"/>
			</g>
		</g>
	</g>
</g>
</svg>
