<?xml version="1.0" encoding="utf-8"?>
<!-- Generator: Adobe Illustrator 23.0.4, SVG Export Plug-In . SVG Version: 6.00 Build 0)  -->
<svg version="1.1" id="Ebene_1" xmlns="http://www.w3.org/2000/svg" xmlns:xlink="http://www.w3.org/1999/xlink" x="0px" y="0px"
	 viewBox="0 0 40 40" style="enable-background:new 0 0 40 40;" xml:space="preserve">
<style type="text/css">
	path{fill-rule:evenodd;clip-rule:evenodd;fill:#ffa500;}
</style>
<g id="key">
	<g>
		<path d="M28.5,22.1c-2.4,0-4.6-0.9-6.3-2.6c-3.5-3.5-3.5-9.2,0-12.7c1.7-1.7,3.9-2.6,6.3-2.6c2.4,0,4.6,0.9,6.3,2.6
			c3.5,3.5,3.5,9.2,0,12.7C33.2,21.1,30.9,22.1,28.5,22.1z M28.5,5.5c-2,0-3.9,0.8-5.3,2.2c-2.9,3-2.9,7.8,0,10.7
			c1.4,1.4,3.3,2.2,5.3,2.2c2,0,3.9-0.8,5.3-2.2c2.9-3,2.9-7.8,0-10.7C32.5,6.3,30.6,5.5,28.5,5.5z"/>
	</g>
	<g>
		<g>
			<path d="M3.2,35.3c-0.2,0-0.4-0.1-0.5-0.2c-0.3-0.3-0.3-0.7,0-1L5,31.8c0.3-0.3,0.7-0.3,1,0c0.3,0.3,0.3,0.7,0,1l-2.3,2.3
				C3.6,35.2,3.4,35.3,3.2,35.3z"/>
		</g>
		<g>
			<path d="M6.9,31.6c-0.2,0-0.4-0.1-0.5-0.2c-0.1-0.1-0.2-0.3-0.2-0.5c0-0.2,0.1-0.4,0.2-0.5c0.3-0.3,0.7-0.3,1,0
				c0.1,0.1,0.2,0.3,0.2,0.5c0,0.2-0.1,0.4-0.2,0.5C7.3,31.5,7.1,31.6,6.9,31.6z"/>
		</g>
		<g>
			<path d="M8.4,30.1c-0.2,0-0.4-0.1-0.5-0.2c-0.3-0.3-0.3-0.7,0-1l10.6-10.6c0.3-0.3,0.7-0.3,1,0c0.3,0.3,0.3,0.7,0,1L8.9,29.9
				C8.7,30,8.6,30.1,8.4,30.1z"/>
		</g>
		<g>
			<path d="M8.4,35.9c-0.3,0-0.5-0.2-0.6-0.4c-0.2-0.4,0-0.8,0.4-0.9l3.5-1.6l1.6-3.5c0.1-0.2,0.2-0.3,0.4-0.4l3.5-1.6l1.6-3.5
				c0.1-0.2,0.2-0.3,0.4-0.4l3.7-1.7c0.4-0.2,0.8,0,0.9,0.4c0.2,0.4,0,0.8-0.4,0.9l-3.5,1.6l-1.6,3.5c-0.1,0.2-0.2,0.3-0.4,0.4
				l-3.5,1.6l-1.6,3.5c-0.1,0.2-0.2,0.3-0.4,0.4l-3.7,1.7C8.6,35.8,8.5,35.9,8.4,35.9z"/>
		</g>
	</g>
	<g>
		<path d="M31.9,13.9c-1.1,0-2.2-0.4-3-1.2c-1.6-1.6-1.6-4.3,0-5.9c0.8-0.8,1.8-1.2,3-1.2c1.1,0,2.2,0.4,3,1.2
			c1.6,1.6,1.6,4.3,0,5.9C34.1,13.5,33,13.9,31.9,13.9z M31.9,6.9c-0.7,0-1.4,0.3-2,0.8c-1.1,1.1-1.1,2.9,0,3.9
			c0.5,0.5,1.2,0.8,2,0.8c0.7,0,1.4-0.3,2-0.8c1.1-1.1,1.1-2.9,0-3.9C33.4,7.2,32.7,6.9,31.9,6.9z"/>
	</g>
</g>
</svg>
