<?xml version="1.0" encoding="utf-8"?>
<!-- Generator: Adobe Illustrator 23.0.4, SVG Export Plug-In . SVG Version: 6.00 Build 0)  -->
<svg version="1.1" id="Ebene_1" xmlns="http://www.w3.org/2000/svg" xmlns:xlink="http://www.w3.org/1999/xlink" x="0px" y="0px"
	 viewBox="0 0 40 40" style="enable-background:new 0 0 40 40;" xml:space="preserve">
<style type="text/css">
	path{fill-rule:evenodd;clip-rule:evenodd;fill:#ffa500;}
</style>
<g id="lockopen">
	<g>
		<path d="M26.5,29c-0.2,0-0.4-0.1-0.5-0.2c-0.1-0.1-0.2-0.3-0.2-0.5c0-0.2,0.1-0.4,0.2-0.5c0.3-0.3,0.7-0.3,1,0
			c0.1,0.1,0.2,0.3,0.2,0.5c0,0.2-0.1,0.4-0.2,0.5C26.9,28.9,26.7,29,26.5,29z"/>
	</g>
	<g>
		<path d="M26.5,37.5H3.7c-0.4,0-0.7-0.3-0.7-0.7V18.9c0-0.4,0.3-0.7,0.7-0.7h22.8c0.4,0,0.7,0.3,0.7,0.7v5.9c0,0.4-0.3,0.7-0.7,0.7
			c-0.4,0-0.7-0.3-0.7-0.7v-5.2H4.4v16.5h21.4v-4.3c0-0.4,0.3-0.7,0.7-0.7c0.4,0,0.7,0.3,0.7,0.7v5C27.2,37.2,26.9,37.5,26.5,37.5z"
			/>
	</g>
	<g>
		<path d="M33.8,19.6c-1.8,0-3.2-1.4-3.2-3.2v-4.6c0-1.6-1.3-3-3-3c-1.6,0-3,1.3-3,3v7.1c0,0.4-0.3,0.7-0.7,0.7
			c-0.4,0-0.7-0.3-0.7-0.7v-7.1c0-2.4,2-4.4,4.4-4.4c2.4,0,4.4,2,4.4,4.4v4.6c0,1,0.8,1.8,1.8,1.8s1.8-0.8,1.8-1.8v-4.4
			c0-4.4-3.6-8-8-8c-1.1,0-2.2,0.2-3.2,0.6c-0.4,0.2-0.8,0-0.9-0.4c-0.2-0.4,0-0.8,0.4-0.9c1.2-0.5,2.4-0.8,3.7-0.8
			c5.2,0,9.4,4.2,9.4,9.4v4.4C37,18.2,35.5,19.6,33.8,19.6z"/>
	</g>
	<g>
		<path d="M18.8,19.6c-0.4,0-0.7-0.3-0.7-0.7v-7c0-5.2,4.2-9.4,9.4-9.4c1.3,0,2.5,0.3,3.7,0.8c0.4,0.2,0.5,0.6,0.4,0.9
			c-0.2,0.4-0.6,0.5-0.9,0.4c-1-0.4-2.1-0.6-3.2-0.6c-4.4,0-8,3.6-8,8v7C19.5,19.3,19.2,19.6,18.8,19.6z"/>
	</g>
	<g>
		<path d="M16.6,32.5h-3c-0.4,0-0.7-0.3-0.7-0.7V28c-0.5-0.5-0.7-1.2-0.7-1.9c0-1.6,1.3-2.9,2.9-2.9c1.6,0,2.9,1.3,2.9,2.9
			c0,0.7-0.2,1.4-0.7,1.9v3.8C17.3,32.2,17,32.5,16.6,32.5z M14.3,31.1h1.6v-3.4c0-0.2,0.1-0.4,0.2-0.5c0.3-0.3,0.5-0.7,0.5-1.1
			c0-0.8-0.7-1.5-1.5-1.5c-0.8,0-1.5,0.7-1.5,1.5c0,0.4,0.2,0.8,0.5,1.1c0.1,0.1,0.2,0.3,0.2,0.5V31.1z"/>
	</g>
</g>
</svg>
