<?xml version="1.0" encoding="utf-8"?>
<!-- Generator: Adobe Illustrator 23.0.4, SVG Export Plug-In . SVG Version: 6.00 Build 0)  -->
<svg version="1.1" id="Ebene_1" xmlns="http://www.w3.org/2000/svg" xmlns:xlink="http://www.w3.org/1999/xlink" x="0px" y="0px"
	 viewBox="0 0 40 40" style="enable-background:new 0 0 40 40;" xml:space="preserve">
<style type="text/css">
	path{fill-rule:evenodd;clip-rule:evenodd;fill:#ffa500;}
</style>
<g id="lockclosed">
	<g>
		<path d="M31.4,29c-0.2,0-0.4-0.1-0.5-0.2c-0.1-0.1-0.2-0.3-0.2-0.5c0-0.2,0.1-0.4,0.2-0.5c0.3-0.3,0.7-0.3,1,0
			c0.1,0.1,0.2,0.3,0.2,0.5c0,0.2-0.1,0.4-0.2,0.5C31.8,28.9,31.6,29,31.4,29z"/>
	</g>
	<g>
		<path d="M31.4,37.5H8.6c-0.4,0-0.7-0.3-0.7-0.7V18.9c0-0.4,0.3-0.7,0.7-0.7h22.8c0.4,0,0.7,0.3,0.7,0.7v5.9c0,0.4-0.3,0.7-0.7,0.7
			s-0.7-0.3-0.7-0.7v-5.2H9.3v16.5h21.4v-4.3c0-0.4,0.3-0.7,0.7-0.7s0.7,0.3,0.7,0.7v5C32.1,37.2,31.8,37.5,31.4,37.5z"/>
	</g>
	<g>
		<path d="M28.7,19.6c-0.4,0-0.7-0.3-0.7-0.7v-7c0-4.4-3.6-8-8-8c-1.1,0-2.2,0.2-3.2,0.6c-0.4,0.2-0.8,0-0.9-0.4
			c-0.2-0.4,0-0.8,0.4-0.9c1.2-0.5,2.4-0.8,3.7-0.8c5.2,0,9.4,4.2,9.4,9.4v7C29.4,19.3,29.1,19.6,28.7,19.6z"/>
	</g>
	<g>
		<path d="M11.3,19.6c-0.4,0-0.7-0.3-0.7-0.7v-7c0-5.2,4.2-9.4,9.4-9.4c1.3,0,2.5,0.3,3.7,0.8c0.4,0.2,0.5,0.6,0.4,0.9
			c-0.2,0.4-0.6,0.5-0.9,0.4c-1-0.4-2.1-0.6-3.2-0.6c-4.4,0-8,3.6-8,8v7C12,19.3,11.6,19.6,11.3,19.6z"/>
	</g>
	<g>
		<path d="M23.7,19.6c-0.4,0-0.7-0.3-0.7-0.7v-7.1c0-1.6-1.3-3-3-3c-1.6,0-3,1.3-3,3v7.1c0,0.4-0.3,0.7-0.7,0.7
			c-0.4,0-0.7-0.3-0.7-0.7v-7.1c0-2.4,2-4.4,4.4-4.4c2.4,0,4.4,2,4.4,4.4v7.1C24.4,19.3,24.1,19.6,23.7,19.6z"/>
	</g>
	<g>
		<path d="M21.5,32.5h-3c-0.4,0-0.7-0.3-0.7-0.7V28c-0.5-0.5-0.7-1.2-0.7-1.9c0-1.6,1.3-2.9,2.9-2.9c1.6,0,2.9,1.3,2.9,2.9
			c0,0.7-0.2,1.4-0.7,1.9v3.8C22.2,32.2,21.9,32.5,21.5,32.5z M19.2,31.1h1.6v-3.4c0-0.2,0.1-0.4,0.2-0.5c0.3-0.3,0.5-0.7,0.5-1.1
			c0-0.8-0.7-1.5-1.5-1.5s-1.5,0.7-1.5,1.5c0,0.4,0.2,0.8,0.5,1.1c0.1,0.1,0.2,0.3,0.2,0.5V31.1z"/>
	</g>
</g>
</svg>
