<?xml version="1.0" encoding="utf-8"?>
<!-- Generator: Adobe Illustrator 23.0.6, SVG Export Plug-In . SVG Version: 6.00 Build 0)  -->
<svg version="1.1" id="Ebene_1" xmlns="http://www.w3.org/2000/svg" xmlns:xlink="http://www.w3.org/1999/xlink" x="0px" y="0px"
	 viewBox="0 0 40 40" style="enable-background:new 0 0 40 40;" xml:space="preserve">
<g>
	<g>
		<path d="M20,24.7c-2.6,0-4.7-2.1-4.7-4.7s2.1-4.7,4.7-4.7c2.6,0,4.7,2.1,4.7,4.7S22.6,24.7,20,24.7z M20,16.7
			c-1.8,0-3.3,1.5-3.3,3.3s1.5,3.3,3.3,3.3s3.3-1.5,3.3-3.3S21.8,16.7,20,16.7z"/>
	</g>
	<g>
		<path d="M20,11c-2.2,0-4-1.8-4-4c0-2.2,1.8-4,4-4c2.2,0,4,1.8,4,4C24,9.2,22.2,11,20,11z M20,4.4c-1.4,0-2.6,1.2-2.6,2.6
			c0,1.4,1.2,2.6,2.6,2.6s2.6-1.2,2.6-2.6C22.6,5.6,21.4,4.4,20,4.4z"/>
	</g>
	<g>
		<path d="M33.5,20.7c-2.2,0-4-1.8-4-4c0-2.2,1.8-4,4-4s4,1.8,4,4C37.5,18.9,35.7,20.7,33.5,20.7z M33.5,14.1
			c-1.4,0-2.6,1.2-2.6,2.6c0,1.4,1.2,2.6,2.6,2.6s2.6-1.2,2.6-2.6C36.1,15.3,34.9,14.1,33.5,14.1z"/>
	</g>
	<g>
		<path d="M26.6,37c-2.2,0-4-1.8-4-4s1.8-4,4-4s4,1.8,4,4S28.8,37,26.6,37z M26.6,30.4c-1.4,0-2.6,1.2-2.6,2.6
			c0,1.4,1.2,2.6,2.6,2.6c1.4,0,2.6-1.2,2.6-2.6C29.2,31.5,28.1,30.4,26.6,30.4z"/>
	</g>
	<g>
		<path d="M13.1,37c-2.2,0-4-1.8-4-4s1.8-4,4-4s4,1.8,4,4S15.3,37,13.1,37z M13.1,30.4c-1.4,0-2.6,1.2-2.6,2.6
			c0,1.4,1.2,2.6,2.6,2.6c1.4,0,2.6-1.2,2.6-2.6C15.7,31.5,14.6,30.4,13.1,30.4z"/>
	</g>
	<g>
		<path d="M6.5,20.7c-2.2,0-4-1.8-4-4c0-0.4,0.1-0.9,0.2-1.3C2.8,15,3.2,14.9,3.6,15C4,15.1,4.2,15.5,4,15.9
			c-0.1,0.3-0.1,0.5-0.1,0.8c0,1.4,1.2,2.6,2.6,2.6s2.6-1.2,2.6-2.6c0-1.3-0.9-2.3-2.1-2.6c-0.4-0.1-0.6-0.4-0.6-0.8
			c0.1-0.4,0.4-0.6,0.8-0.6c1.9,0.3,3.3,2,3.3,3.9C10.5,18.9,8.7,20.7,6.5,20.7z"/>
	</g>
	<g>
		<path d="M4.7,14.6c-0.2,0-0.4-0.1-0.5-0.2C4.1,14.3,4,14.1,4,13.9c0-0.2,0.1-0.4,0.2-0.5c0.3-0.3,0.7-0.3,1,0
			c0.1,0.1,0.2,0.3,0.2,0.5c0,0.2-0.1,0.4-0.2,0.5C5.1,14.6,4.9,14.6,4.7,14.6z"/>
	</g>
	<g>
		<path d="M20,16.7c-0.4,0-0.7-0.3-0.7-0.7v-5.7c0-0.4,0.3-0.7,0.7-0.7s0.7,0.3,0.7,0.7V16C20.7,16.4,20.4,16.7,20,16.7z"/>
	</g>
	<g>
		<path d="M24,20.7c-0.3,0-0.5-0.2-0.7-0.5c-0.1-0.4,0-0.8,0.4-0.9l6.3-2.4c0.4-0.1,0.8,0,0.9,0.4c0.1,0.4,0,0.8-0.4,0.9l-6.3,2.4
			C24.1,20.7,24.1,20.7,24,20.7z"/>
	</g>
	<g>
		<path d="M16,20.7c-0.1,0-0.1,0-0.2,0l-6.6-1.8c-0.4-0.1-0.6-0.5-0.5-0.9c0.1-0.4,0.5-0.6,0.9-0.5l6.6,1.8c0.4,0.1,0.6,0.5,0.5,0.9
			C16.6,20.5,16.3,20.7,16,20.7z"/>
	</g>
	<g>
		<path d="M14.5,30.7c-0.1,0-0.2,0-0.3-0.1c-0.3-0.2-0.5-0.6-0.3-0.9l3.2-6.7c0.2-0.3,0.6-0.5,0.9-0.3c0.3,0.2,0.5,0.6,0.3,0.9
			l-3.2,6.7C15,30.5,14.8,30.7,14.5,30.7z"/>
	</g>
	<g>
		<path d="M25.2,30.7c-0.3,0-0.5-0.2-0.6-0.4l-2.9-6.7c-0.2-0.4,0-0.8,0.4-0.9c0.4-0.2,0.8,0,0.9,0.4l2.9,6.7c0.2,0.4,0,0.8-0.4,0.9
			C25.4,30.7,25.3,30.7,25.2,30.7z"/>
	</g>
</g>
</svg>
