<?xml version="1.0" encoding="utf-8"?>
<!-- Generator: Adobe Illustrator 23.0.6, SVG Export Plug-In . SVG Version: 6.00 Build 0)  -->
<svg version="1.1" id="Ebene_1" xmlns="http://www.w3.org/2000/svg" xmlns:xlink="http://www.w3.org/1999/xlink" x="0px" y="0px"
	 viewBox="0 0 40 40" style="enable-background:new 0 0 40 40;" xml:space="preserve">
<style type="text/css">
	.st0{fill:#FF0000;}
</style>
<g id="notsynced__x2F__synced__x2F_depens_on_color">
	<g>
		<g>
			<g>
				<path class="st0" d="M28.2,30.3c-0.2,0-0.5-0.1-0.7-0.2c-0.8-0.4-1.3-1.3-1.3-2.3v-0.3c0-0.6-0.3-1.1-0.6-1.1h-1.5
					c-0.4,0-0.7-0.3-0.7-0.7s0.3-0.7,0.7-0.7h1.5c1.1,0,2,1.1,2,2.5v0.3c0,0.6,0.2,0.9,0.5,1c0.1,0,0.2,0.1,0.3-0.1l7.3-5.9
					c0.2-0.2,0.4-0.6,0.4-1s-0.1-0.8-0.4-1l-7.3-5.9c-0.2-0.1-0.3-0.1-0.3-0.1c-0.2,0.1-0.5,0.5-0.5,1v0.3c0,1.4-0.9,2.5-2,2.5h-7.1
					c-0.3,0-0.6,0.5-0.6,1.1V24c0,0.6,0.3,1.1,0.6,1.1h0.8c0.4,0,0.7,0.3,0.7,0.7s-0.3,0.7-0.7,0.7h-0.8c-1.1,0-2-1.1-2-2.5v-4.1
					c0-1.4,0.9-2.5,2-2.5h7.1c0.3,0,0.6-0.5,0.6-1.1V16c0-1,0.5-1.9,1.3-2.3c0.6-0.3,1.3-0.2,1.8,0.2l7.3,5.9
					c0.6,0.5,0.9,1.2,0.9,2.1c0,0.8-0.3,1.6-0.9,2.1l-7.3,5.9C29,30.1,28.6,30.3,28.2,30.3z"/>
			</g>
		</g>
		<g>
			<g>
				<path class="st0" d="M21.7,26.4c-0.2,0-0.4-0.1-0.5-0.2S21,25.9,21,25.7s0.1-0.4,0.2-0.5c0.3-0.3,0.7-0.3,1,0
					c0.1,0.1,0.2,0.3,0.2,0.5s-0.1,0.4-0.2,0.5S21.9,26.4,21.7,26.4z"/>
			</g>
		</g>
	</g>
	<g>
		<g>
			<g>
				<path class="st0" d="M11.8,26.4c-0.4,0-0.8-0.1-1.1-0.4l-7.3-5.9c-0.6-0.5-0.9-1.2-0.9-2.1c0-0.8,0.3-1.6,0.9-2.1l7.3-5.9
					c0.5-0.4,1.2-0.5,1.8-0.2c0.8,0.4,1.3,1.3,1.3,2.3v0.3c0,0.6,0.3,1.1,0.6,1.1h7.1c1.1,0,2,1.1,2,2.5v2.1c0,0.4-0.3,0.7-0.7,0.7
					c-0.4,0-0.7-0.3-0.7-0.7V16c0-0.6-0.3-1.1-0.6-1.1h-7.1c-1.1,0-2-1.1-2-2.5v-0.3c0-0.6-0.2-0.9-0.5-1c-0.1,0-0.2-0.1-0.3,0.1
					l-7.3,5.9c-0.2,0.2-0.4,0.6-0.4,1s0.1,0.8,0.4,1l7.3,5.9c0.2,0.1,0.3,0.1,0.3,0.1c0.2-0.1,0.5-0.5,0.5-1v-0.3
					c0-1.4,0.9-2.5,2-2.5h2.9c0.4,0,0.7,0.3,0.7,0.7c0,0.4-0.3,0.7-0.7,0.7h-2.9c-0.3,0-0.6,0.5-0.6,1.1V24c0,1-0.5,1.9-1.3,2.3
					C12.3,26.4,12,26.4,11.8,26.4z"/>
			</g>
		</g>
	</g>
</g>
</svg>
