<?xml version="1.0" encoding="utf-8"?>
<!-- Generator: Adobe Illustrator 23.0.4, SVG Export Plug-In . SVG Version: 6.00 Build 0)  -->
<svg version="1.1" id="Ebene_1" xmlns="http://www.w3.org/2000/svg" xmlns:xlink="http://www.w3.org/1999/xlink" x="0px" y="0px"
	 viewBox="0 0 40 40" style="enable-background:new 0 0 40 40;" xml:space="preserve">
<style type="text/css">
	path{fill-rule:evenodd;clip-rule:evenodd;fill:#ffa500;}
</style>
<g id="receive_1_">
	<g>
		<g>
			<path d="M32.2,8.2c-0.2,0-0.4-0.1-0.5-0.2c-0.1-0.1-0.2-0.3-0.2-0.5c0-0.2,0.1-0.4,0.2-0.5c0.3-0.3,0.7-0.3,1,0
				c0.1,0.1,0.2,0.3,0.2,0.5c0,0.2-0.1,0.4-0.2,0.5C32.6,8.1,32.4,8.2,32.2,8.2z"/>
		</g>
		<g>
			<path d="M20,38.2C10,38.2,1.8,30,1.8,20S10,1.8,20,1.8c3.3,0,6.5,0.9,9.4,2.6c0.3,0.2,0.4,0.6,0.2,1c-0.2,0.3-0.6,0.4-1,0.2
				C26,4,23,3.2,20,3.2C10.7,3.2,3.2,10.7,3.2,20S10.7,36.8,20,36.8c9.3,0,16.8-7.5,16.8-16.8c0-3.2-0.9-6.3-2.6-9
				c-0.2-0.3-0.1-0.8,0.2-1c0.3-0.2,0.8-0.1,1,0.2c1.9,2.9,2.9,6.3,2.9,9.8C38.2,30,30,38.2,20,38.2z"/>
		</g>
	</g>
	<g>
		<g>
			<g>
				<path d="M20,25.2c-0.4,0-0.7-0.3-0.7-0.7V11.9c0-0.4,0.3-0.7,0.7-0.7c0.4,0,0.7,0.3,0.7,0.7v12.6C20.7,24.9,20.4,25.2,20,25.2z"
					/>
			</g>
			<g>
				<path d="M20,25.6L20,25.6c-0.2,0-0.4-0.1-0.6-0.3l-3.7-5.1c-0.2-0.3-0.2-0.7,0.1-1c0.3-0.2,0.7-0.2,1,0.1l3.2,4.3l3.3-4.4
					c0.2-0.3,0.7-0.4,1-0.1c0.3,0.2,0.4,0.7,0.1,1l-3.8,5.1C20.4,25.5,20.2,25.6,20,25.6z"/>
			</g>
		</g>
		<g>
			<path d="M23.8,28.8h-7.6c-0.4,0-0.7-0.3-0.7-0.7s0.3-0.7,0.7-0.7h7.6c0.4,0,0.7,0.3,0.7,0.7S24.2,28.8,23.8,28.8z"/>
		</g>
	</g>
</g>
</svg>
