<?xml version="1.0" encoding="utf-8"?>
<!-- Generator: Adobe Illustrator 23.0.4, SVG Export Plug-In . SVG Version: 6.00 Build 0)  -->
<svg version="1.1" id="Ebene_1" xmlns="http://www.w3.org/2000/svg" xmlns:xlink="http://www.w3.org/1999/xlink" x="0px" y="0px"
	 viewBox="0 0 40 40" style="enable-background:new 0 0 40 40;" xml:space="preserve">
<style type="text/css">
	path{fill-rule:evenodd;clip-rule:evenodd;fill:#ffa500;}
</style>
<g id="repair">
	<g>
		<g>
			<g>
				<g>
					<path d="M31,37.6c-1.7,0-3.4-0.7-4.7-2c-2-2-2.5-5-1.4-7.5l-5.4-5.6l-2.2-2.1l-3.6-3.5c-3,1.6-6.7,1-9.1-1.4
						c-2.2-2.2-2.9-5.5-1.8-8.3c0.1-0.2,0.3-0.4,0.5-0.4c0.2,0,0.5,0,0.6,0.2l4.1,4.1l3-3L7.1,4C6.9,3.9,6.8,3.6,6.9,3.4
						c0-0.2,0.2-0.4,0.4-0.5c2.9-1.1,6.2-0.4,8.4,1.7C15.8,4.7,15.9,4.9,16,5c0.3,0.3,0.2,0.7-0.1,1c-0.3,0.3-0.7,0.2-1-0.1
						c-0.1-0.1-0.2-0.2-0.3-0.3C13.1,4.1,11,3.5,8.9,3.9l3.8,3.8c0.1,0.1,0.2,0.3,0.2,0.5c0,0.2-0.1,0.4-0.2,0.5l-4,4
						c-0.3,0.3-0.7,0.3-1,0L3.8,8.9c-0.4,2.1,0.2,4.2,1.8,5.8c2.1,2.1,5.3,2.5,7.9,0.9c0.3-0.2,0.6-0.1,0.9,0.1l3.9,3.8l2.2,2.1
						l5.8,6c0.2,0.2,0.3,0.6,0.1,0.8c-1.1,2-0.8,4.6,0.9,6.3c2.1,2.1,5.4,2.1,7.5,0c1-1,1.5-2.3,1.5-3.7c0-1.4-0.5-2.7-1.5-3.7
						c-1.7-1.7-4.2-2-6.3-0.9c-0.3,0.1-0.6,0.1-0.8-0.1L15.7,14.3c-0.2-0.2-0.3-0.6-0.1-0.9c0.8-1.4,1.1-3,0.8-4.6
						c-0.1-0.4,0.2-0.7,0.5-0.8c0.4-0.1,0.7,0.2,0.8,0.5c0.3,1.7,0.1,3.5-0.7,5.1l11.2,11.2c2.5-1.1,5.5-0.6,7.5,1.4
						c1.3,1.3,2,2.9,2,4.7c0,1.8-0.7,3.5-2,4.7C34.4,37,32.7,37.6,31,37.6z M31,35.3c-1.1,0-2.2-0.4-3.1-1.3
						c-0.8-0.8-1.3-1.9-1.3-3.1c0-1.2,0.5-2.2,1.3-3.1c1.7-1.7,4.5-1.7,6.1,0c0.8,0.8,1.3,1.9,1.3,3.1c0,1.2-0.5,2.2-1.3,3.1
						C33.2,34.9,32.1,35.3,31,35.3z M31,28c-0.8,0-1.5,0.3-2.1,0.9C28.3,29.4,28,30.2,28,31c0,0.8,0.3,1.5,0.9,2.1
						c1.1,1.1,3,1.1,4.2,0c0.6-0.6,0.9-1.3,0.9-2.1c0-0.8-0.3-1.5-0.9-2.1C32.5,28.3,31.7,28,31,28z"/>
				</g>
			</g>
		</g>
	</g>
	<g>
		<g>
			<g>
				<g>
					<path d="M17.9,25c-0.2,0-0.4-0.1-0.5-0.2l-2.2-2.2c-0.1-0.1-0.2-0.3-0.2-0.5s0.1-0.4,0.2-0.5l2-2c0.3-0.3,0.7-0.3,1,0
						c0.3,0.3,0.3,0.7,0,1l-1.5,1.5l1.2,1.2l1.6-1.6c0.3-0.3,0.7-0.3,1,0c0.3,0.3,0.3,0.7,0,1l-2.1,2.1C18.3,24.9,18.1,25,17.9,25z"
						/>
				</g>
			</g>
		</g>
		<g>
			<g>
				<g>
					<path d="M20.1,18.4c-0.2,0-0.4-0.1-0.5-0.2c-0.3-0.3-0.3-0.7,0-1l5.8-5.8l0,0c-0.2-0.2-0.3-0.5-0.1-0.8l1.8-3.7
						c0.1-0.1,0.1-0.2,0.2-0.3l5.9-3.9c0.3-0.2,0.6-0.1,0.9,0.1L37.4,6c0.2,0.2,0.3,0.6,0.1,0.9l-1.1,1.7c-0.2,0.3-0.6,0.4-1,0.2
						c-0.3-0.2-0.4-0.6-0.2-1L36,6.6l-2.5-2.5l-5.3,3.5l-1.5,3.1l0.2,0.2c0.1,0.1,0.2,0.3,0.2,0.5c0,0.2-0.1,0.4-0.2,0.5l-6.3,6.3
						C20.4,18.3,20.3,18.4,20.1,18.4z"/>
				</g>
			</g>
		</g>
		<g>
			<g>
				<g>
					<path d="M35,10.1c-0.2,0-0.4-0.1-0.5-0.2c-0.1-0.1-0.2-0.3-0.2-0.5c0-0.2,0.1-0.4,0.2-0.5c0.3-0.3,0.7-0.3,1,0
						c0.1,0.1,0.2,0.3,0.2,0.5c0,0.2-0.1,0.4-0.2,0.5C35.3,10,35.1,10.1,35,10.1z"/>
				</g>
			</g>
		</g>
		<g>
			<g>
				<g>
					<path d="M22.3,20.6c-0.2,0-0.4-0.1-0.5-0.2c-0.3-0.3-0.3-0.7,0-1l6.4-6.4c0.3-0.3,0.7-0.3,1,0l0.2,0.2l3.3-1.6l0.9-1.4
						c0.2-0.3,0.6-0.4,1-0.2c0.3,0.2,0.4,0.6,0.2,1l-1,1.5c-0.1,0.1-0.2,0.2-0.3,0.2l-3.9,1.9c-0.3,0.1-0.6,0.1-0.8-0.1l-0.1-0.1
						l-5.9,5.9C22.6,20.5,22.4,20.6,22.3,20.6z"/>
				</g>
			</g>
		</g>
		<g>
			<g>
				<g>
					<path d="M20.1,27c-0.2,0-0.4-0.1-0.5-0.2l-6.4-6.3c-0.3-0.3-0.3-0.7,0-1c0.3-0.3,0.7-0.3,1,0l6.4,6.3c0.3,0.3,0.3,0.7,0,1
						C20.4,27,20.2,27,20.1,27z"/>
				</g>
			</g>
		</g>
		<g>
			<g>
				<g>
					<path d="M9.2,27.3c-0.2,0-0.4-0.1-0.5-0.2c-0.3-0.3-0.3-0.7,0-1l5.6-5.5c0.3-0.3,0.7-0.3,1,0c0.3,0.3,0.3,0.7,0,1l-5.6,5.5
						C9.6,27.3,9.4,27.3,9.2,27.3z"/>
				</g>
			</g>
		</g>
		<g>
			<g>
				<g>
					<path d="M6,37.4c-0.9,0-1.8-0.3-2.5-1c-0.7-0.7-1.1-1.6-1.1-2.5c0-1,0.4-1.8,1.1-2.5l1.3-1.3c0.3-0.3,0.7-0.3,1,0
						c0.3,0.3,0.3,0.7,0,1l-1.3,1.3c-0.4,0.4-0.6,0.9-0.6,1.5c0,0.6,0.2,1.1,0.6,1.5c0.9,0.8,2.3,0.8,3.1,0l10.9-10.7
						c0.3-0.3,0.7-0.3,1,0c0.3,0.3,0.3,0.7,0,1L8.6,36.4C7.9,37.1,6.9,37.4,6,37.4z"/>
				</g>
			</g>
		</g>
		<g>
			<g>
				<g>
					<path d="M4,36.6c-0.2,0-0.4-0.1-0.5-0.2c-0.3-0.3-0.3-0.7,0-1l9.6-9.6c0.3-0.3,0.7-0.3,1,0c0.3,0.3,0.3,0.7,0,1l-9.6,9.6
						C4.3,36.5,4.1,36.6,4,36.6z"/>
				</g>
			</g>
		</g>
	</g>
</g>
</svg>
