<?xml version="1.0" encoding="utf-8"?>
<!-- Generator: Adobe Illustrator 23.0.6, SVG Export Plug-In . SVG Version: 6.00 Build 0)  -->
<svg version="1.1" id="Ebene_1" xmlns="http://www.w3.org/2000/svg" xmlns:xlink="http://www.w3.org/1999/xlink" x="0px" y="0px"
	 viewBox="0 0 40 40" style="enable-background:new 0 0 40 40;" xml:space="preserve">
<g>
	<g>
		<g>
			<path d="M25,36.5H3.2c-0.4,0-0.7-0.3-0.7-0.7V22.9c0-0.4,0.3-0.7,0.7-0.7s0.7,0.3,0.7,0.7v12.2h20.4v-24L18,4.9H3.9v11.9
				c0,0.4-0.3,0.7-0.7,0.7s-0.7-0.3-0.7-0.7V4.2c0-0.4,0.3-0.7,0.7-0.7h15.1c0.2,0,0.4,0.1,0.5,0.2l6.7,6.7c0.1,0.1,0.2,0.3,0.2,0.5
				v24.9C25.7,36.2,25.4,36.5,25,36.5z"/>
		</g>
		<g>
			<path d="M3.2,20.5c-0.2,0-0.4-0.1-0.5-0.2c-0.1-0.1-0.2-0.3-0.2-0.5c0-0.2,0.1-0.4,0.2-0.5c0.3-0.3,0.7-0.3,1,0
				c0.1,0.1,0.2,0.3,0.2,0.5c0,0.2-0.1,0.4-0.2,0.5C3.6,20.4,3.4,20.5,3.2,20.5z"/>
		</g>
		<g>
			<path d="M25,11.6h-6.7c-0.4,0-0.7-0.3-0.7-0.7s0.3-0.7,0.7-0.7H25c0.4,0,0.7,0.3,0.7,0.7S25.4,11.6,25,11.6z"/>
		</g>
		<g>
			<path d="M18.3,11.6c-0.4,0-0.7-0.3-0.7-0.7V4.2c0-0.4,0.3-0.7,0.7-0.7c0.4,0,0.7,0.3,0.7,0.7v6.7C19,11.3,18.7,11.6,18.3,11.6z"
				/>
		</g>
		<g>
			<path d="M11,19.8c-1.6,0-3-1.3-3-3s1.3-3,3-3s3,1.3,3,3S12.7,19.8,11,19.8z M11,15.2c-0.9,0-1.6,0.7-1.6,1.6
				c0,0.9,0.7,1.6,1.6,1.6c0.9,0,1.6-0.7,1.6-1.6C12.6,15.9,11.9,15.2,11,15.2z"/>
		</g>
		<g>
			<path d="M11.4,28.1c-0.4,0-0.7-0.3-0.7-0.6c0-0.4,0.2-0.7,0.6-0.8c0.1,0,8.6-1,8.1-6.4c0-0.4,0.3-0.7,0.6-0.8
				c0.4,0,0.7,0.3,0.8,0.6C21.3,25.6,14.9,27.7,11.4,28.1C11.4,28.1,11.4,28.1,11.4,28.1z"/>
		</g>
	</g>
	<g>
		<g>
			<path d="M31.8,34.2c-0.2,0-0.4-0.1-0.6-0.3c-1.9-2.6-2.9-5.8-2.9-9v-5.1c0-0.4,0.3-0.7,0.7-0.7c0.4,0,0.7,0.3,0.7,0.7v5.1
				c0,2.6,0.7,5.1,2,7.4c1.3-2.2,2-4.7,2-7.4V9.8c0-1.2-0.9-2.1-2-2.1s-2,1-2,2.1v7.1c0,0.4-0.3,0.7-0.7,0.7c-0.4,0-0.7-0.3-0.7-0.7
				V9.8c0-1.9,1.5-3.5,3.4-3.5s3.4,1.6,3.4,3.5v15.1c0,3.3-1,6.4-2.9,9C32.2,34.1,32,34.2,31.8,34.2z"/>
		</g>
		<g>
			<path d="M31.8,36.5c-0.4,0-0.7-0.3-0.7-0.7v-2.3c0-0.4,0.3-0.7,0.7-0.7c0.4,0,0.7,0.3,0.7,0.7v2.3C32.5,36.2,32.2,36.5,31.8,36.5
				z"/>
		</g>
		<g>
			<path d="M31.8,7.6c-0.4,0-0.7-0.3-0.7-0.7V4.2c0-0.4,0.3-0.7,0.7-0.7c0.4,0,0.7,0.3,0.7,0.7v2.8C32.5,7.3,32.2,7.6,31.8,7.6z"/>
		</g>
		<g>
			<path d="M36.8,19.8c-0.4,0-0.7-0.3-0.7-0.7v-6.6H29c-0.4,0-0.7-0.3-0.7-0.7c0-0.4,0.3-0.7,0.7-0.7h7.8c0.4,0,0.7,0.3,0.7,0.7v7.3
				C37.5,19.4,37.2,19.8,36.8,19.8z"/>
		</g>
	</g>
</g>
</svg>
