<?xml version="1.0" encoding="utf-8"?>
<!-- Generator: Adobe Illustrator 23.0.4, SVG Export Plug-In . SVG Version: 6.00 Build 0)  -->
<svg version="1.1" id="Ebene_1" xmlns="http://www.w3.org/2000/svg" xmlns:xlink="http://www.w3.org/1999/xlink" x="0px" y="0px"
	 viewBox="0 0 40 40" style="enable-background:new 0 0 40 40;" xml:space="preserve">
<style type="text/css">
	path{fill-rule:evenodd;clip-rule:evenodd;fill:#ffa500;}
</style>
<g id="transaction2">
	<g>
		<g>
			<g>
				<path d="M34.7,16c-0.2,0-0.4-0.1-0.5-0.2C34,15.7,34,15.5,34,15.3c0-0.2,0.1-0.4,0.2-0.5c0.3-0.3,0.7-0.3,1,0
					c0.1,0.1,0.2,0.3,0.2,0.5c0,0.2-0.1,0.4-0.2,0.5C35,16,34.8,16,34.7,16z"/>
			</g>
		</g>
		<g>
			<g>
				<path d="M10.8,27.6H9.5c-4,0-7.2-3.2-7.2-7.2c0-3.2,2.2-6.1,5.3-6.9c0-0.1,0-0.2,0-0.2c0-4,3.2-7.2,7.2-7.2c3.3,0,6.2,2.2,7,5.4
					c0.9-0.4,1.9-0.6,2.8-0.6c2.1,0,4,0.9,5.4,2.4c0.2,0,0.3,0,0.5,0c0.7,0,1.4,0.1,2.1,0.3c0.4,0.1,0.6,0.5,0.5,0.9
					c-0.1,0.4-0.5,0.6-0.9,0.5c-0.8-0.2-1.6-0.3-2.4-0.2c-0.2,0-0.5-0.1-0.6-0.3c-1.1-1.4-2.8-2.2-4.5-2.2c-1,0-2.1,0.3-3,0.8
					c-0.2,0.1-0.5,0.1-0.7,0c-0.2-0.1-0.4-0.3-0.4-0.5c-0.4-2.9-2.8-5.1-5.8-5.1C11.6,7.4,9,10,9,13.2c0,0.2,0,0.5,0,0.7
					c0,0.4-0.2,0.7-0.6,0.8c-2.7,0.5-4.7,2.9-4.7,5.7c0,3.2,2.6,5.8,5.8,5.8h1.3c0.4,0,0.7,0.3,0.7,0.7
					C11.5,27.3,11.2,27.6,10.8,27.6z"/>
			</g>
		</g>
		<g>
			<g>
				<path d="M30.5,27.6h-1.3c-0.4,0-0.7-0.3-0.7-0.7c0-0.4,0.3-0.7,0.7-0.7h1.3c3.2,0,5.8-2.6,5.8-5.8c0-0.8-0.2-1.6-0.5-2.3
					c-0.2-0.4,0-0.8,0.4-0.9c0.4-0.2,0.8,0,0.9,0.4c0.4,0.9,0.6,1.9,0.6,2.9C37.7,24.4,34.4,27.6,30.5,27.6z"/>
			</g>
		</g>
		<g>
			<g>
				<path d="M6.4,20.8c-0.4,0-0.7-0.3-0.7-0.7c0-2.2,1.8-4,4-4c0.4,0,0.7,0.3,0.7,0.7c0,0.4-0.3,0.7-0.7,0.7c-1.5,0-2.6,1.2-2.6,2.6
					C7.1,20.5,6.8,20.8,6.4,20.8z"/>
			</g>
		</g>
	</g>
	<g>
		<g>
			<path d="M20,34c-3.9,0-7.1-3.2-7.1-7.1c0-3.9,3.2-7.1,7.1-7.1c3.9,0,7.1,3.2,7.1,7.1C27.1,30.8,23.9,34,20,34z M20,21.2
				c-3.1,0-5.7,2.6-5.7,5.7c0,3.1,2.5,5.7,5.7,5.7s5.7-2.6,5.7-5.7C25.7,23.8,23.1,21.2,20,21.2z"/>
		</g>
	</g>
	<g>
		<g>
			<path d="M19,29.8c-0.2,0-0.4-0.1-0.5-0.2l-2.4-2.4c-0.3-0.3-0.3-0.7,0-1c0.3-0.3,0.7-0.3,1,0l1.9,1.9l3.9-3.9
				c0.3-0.3,0.7-0.3,1,0c0.3,0.3,0.3,0.7,0,1l-4.4,4.4C19.4,29.7,19.2,29.8,19,29.8z"/>
		</g>
	</g>
</g>
</svg>
