<?xml version="1.0" encoding="utf-8"?>
<!-- Generator: Adobe Illustrator 23.0.4, SVG Export Plug-In . SVG Version: 6.00 Build 0)  -->
<svg version="1.1" id="Ebene_1" xmlns="http://www.w3.org/2000/svg" xmlns:xlink="http://www.w3.org/1999/xlink" x="0px" y="0px"
	 viewBox="0 0 40 40" style="enable-background:new 0 0 40 40;" xml:space="preserve">
<style type="text/css">
	path{fill-rule:evenodd;clip-rule:evenodd;fill:#ffa500;}
</style>
<g id="transaction_conflicted">
	<g>
		<g>
			<g>
				<path d="M34.7,16.7c-0.2,0-0.4-0.1-0.5-0.2C34,16.4,34,16.2,34,16c0-0.2,0.1-0.4,0.2-0.5c0.3-0.3,0.7-0.3,1,0
					c0.1,0.1,0.2,0.3,0.2,0.5c0,0.2-0.1,0.4-0.2,0.5C35,16.6,34.8,16.7,34.7,16.7z"/>
			</g>
		</g>
		<g>
			<g>
				<path d="M12.6,28.3H9.5c-4,0-7.2-3.2-7.2-7.2c0-3.2,2.2-6.1,5.2-6.9c0-0.1,0-0.2,0-0.2c0-4,3.2-7.2,7.2-7.2c3.3,0,6.2,2.2,7,5.4
					c0.9-0.4,1.9-0.6,2.8-0.6c2.1,0,4,0.9,5.4,2.4c0.2,0,0.3,0,0.5,0c0.7,0,1.4,0.1,2.1,0.3c0.4,0.1,0.6,0.5,0.5,0.9
					c-0.1,0.4-0.5,0.6-0.9,0.5c-0.8-0.2-1.6-0.3-2.4-0.2c-0.2,0-0.5-0.1-0.6-0.3c-1.1-1.4-2.8-2.2-4.5-2.2c-1,0-2.1,0.3-3,0.8
					c-0.2,0.1-0.5,0.1-0.7,0c-0.2-0.1-0.4-0.3-0.4-0.5c-0.4-2.9-2.8-5.1-5.8-5.1c-3.2,0-5.8,2.6-5.8,5.8c0,0.2,0,0.5,0,0.7
					c0,0.4-0.2,0.7-0.6,0.8c-2.7,0.5-4.7,2.9-4.7,5.7c0,3.2,2.6,5.8,5.8,5.8h3.1c0.4,0,0.7,0.3,0.7,0.7C13.3,28,13,28.3,12.6,28.3z"
					/>
			</g>
		</g>
		<g>
			<g>
				<path d="M30.5,28.3h-3.1c-0.4,0-0.7-0.3-0.7-0.7c0-0.4,0.3-0.7,0.7-0.7h3.1c3.2,0,5.8-2.6,5.8-5.8c0-0.8-0.2-1.6-0.5-2.3
					c-0.2-0.4,0-0.8,0.4-0.9c0.4-0.2,0.8,0,0.9,0.4c0.4,0.9,0.6,1.9,0.6,2.9C37.7,25,34.4,28.3,30.5,28.3z"/>
			</g>
		</g>
		<g>
			<g>
				<path d="M6.4,21.5c-0.4,0-0.7-0.3-0.7-0.7c0-2.2,1.8-4,4-4c0.4,0,0.7,0.3,0.7,0.7s-0.3,0.7-0.7,0.7c-1.5,0-2.6,1.2-2.6,2.6
					C7.1,21.2,6.8,21.5,6.4,21.5z"/>
			</g>
		</g>
	</g>
	<g>
		<g>
			<g>
				<path d="M20,31.1c-0.2,0-0.4-0.1-0.5-0.2c-0.1-0.1-0.2-0.3-0.2-0.5c0-0.2,0.1-0.4,0.2-0.5c0.3-0.3,0.7-0.3,1,0
					c0.1,0.1,0.2,0.3,0.2,0.5c0,0.2-0.1,0.4-0.2,0.5C20.4,31.1,20.2,31.1,20,31.1z"/>
			</g>
		</g>
		<g>
			<g>
				<path d="M20,28.6c-0.4,0-0.7-0.3-0.7-0.7v-3.6c0-0.4,0.3-0.7,0.7-0.7c0.4,0,0.7,0.3,0.7,0.7v3.6C20.7,28.3,20.4,28.6,20,28.6z"
					/>
			</g>
		</g>
	</g>
	<g>
		<g>
			<path d="M25.3,33.3H14.7c-0.5,0-0.9-0.2-1.1-0.6c-0.2-0.4-0.3-0.9-0.1-1.3l5.3-10.7C19,20.3,19.5,20,20,20c0.5,0,1,0.3,1.2,0.7
				l5.3,10.7c0.2,0.4,0.2,0.9-0.1,1.3C26.2,33.1,25.8,33.3,25.3,33.3z M14.7,31.9h10.5L20,21.4L14.7,31.9z"/>
		</g>
	</g>
</g>
</svg>
