<?xml version="1.0" encoding="utf-8"?>
<!-- Generator: Adobe Illustrator 23.0.4, SVG Export Plug-In . SVG Version: 6.00 Build 0)  -->
<svg version="1.1" id="Ebene_1" xmlns="http://www.w3.org/2000/svg" xmlns:xlink="http://www.w3.org/1999/xlink" x="0px" y="0px"
	 viewBox="0 0 40 40" style="enable-background:new 0 0 40 40;" xml:space="preserve">
<style type="text/css">
	path{fill-rule:evenodd;clip-rule:evenodd;fill:#ffa500;}
</style>
<g id="tsu">
	<g>
		<g>
			<g>
				<path d="M7.8,26.8c-1.9,0-3.4-1.5-3.4-3.4c0-1.9,1.5-3.4,3.4-3.4s3.4,1.5,3.4,3.4C11.1,25.3,9.6,26.8,7.8,26.8z M7.8,21.5
					c-1.1,0-2,0.9-2,2c0,1.1,0.9,2,2,2c1.1,0,2-0.9,2-2C9.7,22.4,8.9,21.5,7.8,21.5z"/>
			</g>
		</g>
		<g>
			<g>
				<path d="M12.2,34.1c-0.4,0-0.7-0.3-0.7-0.7c0-2.1-1.7-3.7-3.7-3.7c-2.1,0-3.7,1.7-3.7,3.7c0,0.4-0.3,0.7-0.7,0.7
					c-0.4,0-0.7-0.3-0.7-0.7c0-2.8,2.3-5.1,5.1-5.1c2.8,0,5.1,2.3,5.1,5.1C12.9,33.8,12.6,34.1,12.2,34.1z"/>
			</g>
		</g>
	</g>
	<g>
		<g>
			<g>
				<path d="M20,26.8c-1.9,0-3.4-1.5-3.4-3.4c0-1.9,1.5-3.4,3.4-3.4c1.9,0,3.4,1.5,3.4,3.4C23.4,25.3,21.9,26.8,20,26.8z M20,21.5
					c-1.1,0-2,0.9-2,2c0,1.1,0.9,2,2,2c1.1,0,2-0.9,2-2C22,22.4,21.1,21.5,20,21.5z"/>
			</g>
		</g>
		<g>
			<g>
				<path d="M24.4,34.1c-0.4,0-0.7-0.3-0.7-0.7c0-2.1-1.7-3.7-3.7-3.7c-2.1,0-3.7,1.7-3.7,3.7c0,0.4-0.3,0.7-0.7,0.7
					c-0.4,0-0.7-0.3-0.7-0.7c0-2.8,2.3-5.1,5.1-5.1c2.8,0,5.1,2.3,5.1,5.1C25.1,33.8,24.8,34.1,24.4,34.1z"/>
			</g>
		</g>
	</g>
	<g>
		<g>
			<g>
				<path d="M32.2,26.8c-1.9,0-3.4-1.5-3.4-3.4c0-1.9,1.5-3.4,3.4-3.4c1.9,0,3.4,1.5,3.4,3.4C35.6,25.3,34.1,26.8,32.2,26.8z
					 M32.2,21.5c-1.1,0-2,0.9-2,2c0,1.1,0.9,2,2,2c1.1,0,2-0.9,2-2C34.2,22.4,33.3,21.5,32.2,21.5z"/>
			</g>
		</g>
		<g>
			<g>
				<path d="M36.7,34.1c-0.4,0-0.7-0.3-0.7-0.7c0-2.1-1.7-3.7-3.7-3.7c-2.1,0-3.7,1.7-3.7,3.7c0,0.4-0.3,0.7-0.7,0.7
					c-0.4,0-0.7-0.3-0.7-0.7c0-2.8,2.3-5.1,5.1-5.1s5.1,2.3,5.1,5.1C37.4,33.8,37.1,34.1,36.7,34.1z"/>
			</g>
		</g>
	</g>
	<g>
		<g>
			<path d="M13.9,7.3c-0.2,0-0.4-0.1-0.5-0.2c-0.1-0.1-0.2-0.3-0.2-0.5c0-0.2,0.1-0.4,0.2-0.5c0.3-0.3,0.7-0.3,1,0
				c0.1,0.1,0.2,0.3,0.2,0.5c0,0.2-0.1,0.4-0.2,0.5C14.3,7.2,14.1,7.3,13.9,7.3z"/>
		</g>
	</g>
	<g>
		<g>
			<path d="M32.2,19.1c-0.2,0-0.4-0.1-0.6-0.3l-2.8-4.2h-7l-1.2,4c-0.1,0.3-0.4,0.5-0.7,0.5c-0.3,0-0.6-0.2-0.7-0.5l-1.2-4h-7
				l-2.8,4.2c-0.2,0.3-0.5,0.4-0.8,0.3C7.2,19,7,18.7,7.1,18.4l0.3-3.7H6.9c-2.4,0-4.4-2-4.4-4.4c0-2.4,2-4.4,4.4-4.4h4.2
				c0.4,0,0.7,0.3,0.7,0.7c0,0.4-0.3,0.7-0.7,0.7H6.9c-1.6,0-3,1.3-3,3c0,1.6,1.3,3,3,3h1.3c0.2,0,0.4,0.1,0.5,0.2
				c0.1,0.1,0.2,0.3,0.2,0.5l-0.1,1.8l1.5-2.3c0.1-0.2,0.3-0.3,0.6-0.3h7.9c0.3,0,0.6,0.2,0.7,0.5L20,16l0.7-2.2
				c0.1-0.3,0.4-0.5,0.7-0.5h7.9c0.2,0,0.4,0.1,0.6,0.3l1.5,2.3L31.2,14c0-0.2,0.1-0.4,0.2-0.5c0.1-0.1,0.3-0.2,0.5-0.2h1.3
				c1.6,0,3-1.3,3-3c0-1.6-1.3-3-3-3H17c-0.4,0-0.7-0.3-0.7-0.7c0-0.4,0.3-0.7,0.7-0.7h16.1c2.4,0,4.4,2,4.4,4.4
				c0,2.4-2,4.4-4.4,4.4h-0.5l0.3,3.7c0,0.3-0.2,0.6-0.5,0.7C32.4,19.1,32.3,19.1,32.2,19.1z"/>
		</g>
	</g>
</g>
</svg>
