<?xml version="1.0" encoding="utf-8"?>
<!-- Generator: Adobe Illustrator 23.0.4, SVG Export Plug-In . SVG Version: 6.00 Build 0)  -->
<svg version="1.1" id="Ebene_1" xmlns="http://www.w3.org/2000/svg" xmlns:xlink="http://www.w3.org/1999/xlink" x="0px" y="0px"
	 viewBox="0 0 40 40" style="enable-background:new 0 0 40 40;" xml:space="preserve">
<style type="text/css">
	path{fill-rule:evenodd;clip-rule:evenodd;fill:#ffa500;}
</style>
<g id="txinput">
	<g>
		<path d="M8.6,33.3c-0.2,0-0.4-0.1-0.5-0.3l-5.4-6.5c-0.2-0.2-0.2-0.5-0.1-0.7c0.1-0.2,0.4-0.4,0.6-0.4h2.3v-6.5
			c0-0.2,0.1-0.4,0.2-0.5c0.1-0.1,0.3-0.2,0.5-0.2c0,0,0,0,0,0l0.7,0l-1.4-4.6c-0.1-0.2,0-0.4,0.1-0.6c0.1-0.2,0.3-0.3,0.6-0.3h19.1
			c0.3,0,0.6,0.2,0.7,0.5l3.8,12.7c0.1,0.2,0,0.4-0.1,0.6c-0.1,0.2-0.3,0.3-0.6,0.3H14.4l-5.2,6.3C9,33.2,8.8,33.3,8.6,33.3z
			 M4.7,26.8l3.9,4.8l3.9-4.8h-1.5c-0.4,0-0.7-0.3-0.7-0.7v-6.7c0-0.4,0.3-0.7,0.7-0.7c0.4,0,0.7,0.3,0.7,0.7v6H14c0,0,0,0,0,0h14
			l-3.4-11.3H7.1l1.4,4.6c0.1,0.2,0,0.4-0.1,0.6c-0.1,0.2-0.3,0.3-0.6,0.3h0l-0.9,0v6.5c0,0.4-0.3,0.7-0.7,0.7H4.7z"/>
	</g>
	<g>
		<path d="M29,26.8c-0.1,0-0.2,0-0.3-0.1c-0.4-0.1-0.5-0.6-0.4-0.9l2.8-6.7c0.1-0.4,0.6-0.5,0.9-0.4c0.4,0.1,0.5,0.6,0.4,0.9
			l-2.8,6.7C29.5,26.6,29.3,26.8,29,26.8z"/>
	</g>
	<g>
		<path d="M33.1,16.9c-0.2,0-0.4-0.1-0.5-0.2c-0.1-0.1-0.2-0.3-0.2-0.5c0-0.2,0.1-0.4,0.2-0.5c0.3-0.3,0.7-0.3,1,0
			c0.1,0.1,0.2,0.3,0.2,0.5c0,0.2-0.1,0.4-0.2,0.5C33.5,16.9,33.3,16.9,33.1,16.9z"/>
	</g>
	<g>
		<path d="M34.4,13.8c-0.1,0-0.2,0-0.3-0.1c-0.4-0.1-0.5-0.6-0.4-0.9l2-4.7h-7.6l-2.1,3.2c-0.1,0.2-0.4,0.3-0.6,0.3H10.6
			c-0.4,0-0.7-0.3-0.7-0.7c0-0.4,0.3-0.7,0.7-0.7h14.5L27.2,7c0.1-0.2,0.3-0.3,0.6-0.3h9c0.2,0,0.5,0.1,0.6,0.3
			c0.1,0.2,0.2,0.4,0.1,0.7l-2.4,5.7C35,13.6,34.7,13.8,34.4,13.8z"/>
	</g>
</g>
</svg>
