<?xml version="1.0" encoding="utf-8"?>
<!-- Generator: Adobe Illustrator 23.0.4, SVG Export Plug-In . SVG Version: 6.00 Build 0)  -->
<svg version="1.1" id="Ebene_1" xmlns="http://www.w3.org/2000/svg" xmlns:xlink="http://www.w3.org/1999/xlink" x="0px" y="0px"
	 viewBox="0 0 40 40" style="enable-background:new 0 0 40 40;" xml:space="preserve">
<style type="text/css">
	path{fill-rule:evenodd;clip-rule:evenodd;fill:#ffa500;}
</style>
<g id="txmined_123">
	<g>
		<path d="M8.1,29.2c-0.2,0-0.4-0.1-0.5-0.2L6,27c-0.3-0.3-0.2-0.7,0.1-1c0.3-0.3,0.7-0.2,1,0.1l1.1,1.2l2.4-3.2
			c0.2-0.3,0.7-0.4,1-0.1c0.3,0.2,0.4,0.7,0.1,1l-2.9,3.9C8.6,29.1,8.4,29.2,8.1,29.2C8.1,29.2,8.1,29.2,8.1,29.2z"/>
	</g>
	<g>
		<path d="M8.7,32.8c-3.4,0-6.2-2.8-6.2-6.2c0-3.4,2.8-6.2,6.2-6.2c3.4,0,6.2,2.8,6.2,6.2C15,30,12.2,32.8,8.7,32.8z M8.7,21.7
			c-2.7,0-4.8,2.2-4.8,4.8c0,2.7,2.2,4.8,4.8,4.8c2.7,0,4.8-2.2,4.8-4.8C13.6,23.9,11.4,21.7,8.7,21.7z"/>
	</g>
	<g>
		<g>
			<path d="M29,27.4H14.6c-0.4,0-0.7-0.3-0.7-0.7c0-0.4,0.3-0.7,0.7-0.7H28l-3.4-11.3H6.9l1.8,6.1c0.1,0.4-0.1,0.8-0.5,0.9
				c-0.4,0.1-0.8-0.1-0.9-0.5l-2.1-7c-0.1-0.2,0-0.4,0.1-0.6c0.1-0.2,0.3-0.3,0.6-0.3h19.2c0.3,0,0.6,0.2,0.7,0.5l3.8,12.7
				c0.1,0.2,0,0.4-0.1,0.6C29.4,27.3,29.2,27.4,29,27.4z"/>
		</g>
		<g>
			<path d="M29,27.4c-0.1,0-0.2,0-0.3-0.1c-0.4-0.1-0.5-0.6-0.4-0.9l2.8-6.7c0.1-0.4,0.6-0.5,0.9-0.4c0.4,0.1,0.5,0.6,0.4,0.9
				L29.6,27C29.5,27.3,29.2,27.4,29,27.4z"/>
		</g>
		<g>
			<path d="M33.1,17.5c-0.2,0-0.4-0.1-0.5-0.2c-0.1-0.1-0.2-0.3-0.2-0.5c0-0.2,0.1-0.4,0.2-0.5c0.3-0.3,0.7-0.3,1,0
				c0.1,0.1,0.2,0.3,0.2,0.5c0,0.2-0.1,0.4-0.2,0.5C33.5,17.5,33.3,17.5,33.1,17.5z"/>
		</g>
		<g>
			<path d="M34.4,14.4c-0.1,0-0.2,0-0.3-0.1c-0.4-0.1-0.5-0.6-0.4-0.9l2-4.8h-7.6L26,11.8c-0.1,0.2-0.4,0.3-0.6,0.3h-15
				c-0.4,0-0.7-0.3-0.7-0.7c0-0.4,0.3-0.7,0.7-0.7h14.6l2.1-3.2c0.1-0.2,0.4-0.3,0.6-0.3h9.1c0.2,0,0.5,0.1,0.6,0.3
				c0.1,0.2,0.2,0.4,0.1,0.7l-2.4,5.7C35,14.2,34.7,14.4,34.4,14.4z"/>
		</g>
	</g>
</g>
</svg>
