<?xml version="1.0" encoding="utf-8"?>
<!-- Generator: Adobe Illustrator 23.0.4, SVG Export Plug-In . SVG Version: 6.00 Build 0)  -->
<svg version="1.1" id="Ebene_1" xmlns="http://www.w3.org/2000/svg" xmlns:xlink="http://www.w3.org/1999/xlink" x="0px" y="0px"
	 viewBox="0 0 40 40" style="enable-background:new 0 0 40 40;" xml:space="preserve">
<style type="text/css">
	path{fill-rule:evenodd;clip-rule:evenodd;fill:#ffa500;}
</style>
<g id="txoutput">
	<g>
		<path d="M11.1,32.9c-0.4,0-0.7-0.3-0.7-0.7V28c0-0.4,0.3-0.7,0.7-0.7h1.5l-4-4.8l-4,4.8h1.5c0.4,0,0.7,0.3,0.7,0.7v4.2
			c0,0.4-0.3,0.7-0.7,0.7s-0.7-0.3-0.7-0.7v-3.5H3.2c-0.3,0-0.5-0.2-0.6-0.4c-0.1-0.2-0.1-0.5,0.1-0.7L8.1,21c0.3-0.3,0.8-0.3,1.1,0
			l5.5,6.6c0.2,0.2,0.2,0.5,0.1,0.7c-0.1,0.2-0.4,0.4-0.6,0.4h-2.3v3.5C11.8,32.6,11.5,32.9,11.1,32.9z"/>
	</g>
	<g>
		<g>
			<path d="M29,27.3H13c-0.4,0-0.7-0.3-0.7-0.7s0.3-0.7,0.7-0.7H28l-3.4-11.4H6.9l2,7.2c0.1,0.4-0.1,0.8-0.5,0.9
				c-0.4,0.1-0.8-0.1-0.9-0.5l-2.3-8.1c-0.1-0.2,0-0.4,0.1-0.6c0.1-0.2,0.3-0.3,0.6-0.3h19.2c0.3,0,0.6,0.2,0.7,0.5l3.8,12.8
				c0.1,0.2,0,0.4-0.1,0.6C29.4,27.2,29.2,27.3,29,27.3z"/>
		</g>
		<g>
			<path d="M29,27.3c-0.1,0-0.2,0-0.3-0.1c-0.4-0.1-0.5-0.6-0.4-0.9l2.8-6.7c0.1-0.4,0.6-0.5,0.9-0.4c0.4,0.1,0.5,0.6,0.4,0.9
				l-2.8,6.7C29.5,27.2,29.2,27.3,29,27.3z"/>
		</g>
		<g>
			<path d="M33.1,17.4c-0.2,0-0.4-0.1-0.5-0.2c-0.1-0.1-0.2-0.3-0.2-0.5c0-0.2,0.1-0.4,0.2-0.5c0.3-0.3,0.7-0.3,1,0
				c0.1,0.1,0.2,0.3,0.2,0.5c0,0.2-0.1,0.4-0.2,0.5C33.4,17.4,33.3,17.4,33.1,17.4z"/>
		</g>
		<g>
			<path d="M34.4,14.2c-0.1,0-0.2,0-0.3-0.1c-0.4-0.1-0.5-0.6-0.4-0.9l2-4.8h-7.7L26,11.7c-0.1,0.2-0.4,0.3-0.6,0.3h-15
				c-0.4,0-0.7-0.3-0.7-0.7c0-0.4,0.3-0.7,0.7-0.7H25l2.1-3.2c0.1-0.2,0.4-0.3,0.6-0.3h9.1c0.2,0,0.5,0.1,0.6,0.3
				c0.1,0.2,0.2,0.4,0.1,0.7l-2.4,5.7C34.9,14.1,34.7,14.2,34.4,14.2z"/>
		</g>
	</g>
</g>
</svg>
